<?xml version="1.0" encoding="utf-8"?>
<!-- Generator: Adobe Illustrator 22.1.0, SVG Export Plug-In . SVG Version: 6.00 Build 0)  -->
<svg version="1.1" id="Layer_1" xmlns="http://www.w3.org/2000/svg" xmlns:xlink="http://www.w3.org/1999/xlink" x="0px" y="0px"
	 viewBox="0 0 684 459" style="enable-background:new 0 0 684 459;" xml:space="preserve">
<style type="text/css">
	.st0{display:none;opacity:0.8;fill:#FFFFFF;}
	.st1{clip-path:url(#SVGID_1_);fill:#003A4C;}
	.st2{clip-path:url(#SVGID_1_);}
	.st3{fill:#7B9BAF;}
	.st4{fill:#99AA90;}
	.st5{fill:#3B3B39;}
	.st6{fill:#CC872A;}
	.st7{fill:#C67B2E;}
	.st8{fill:#FFFFFF;}
	.st9{opacity:0.5;fill:#7B9BAF;}
	.st10{opacity:0.6;fill:#7B9BAF;}
	.st11{fill:none;}
	.st12{fill:#0F5B82;}
	.st13{fill:#1B4E78;}
	.st14{fill:#135D87;}
	.st15{fill:#003B54;stroke:#FFFDFD;stroke-width:0.7;stroke-miterlimit:10;}
	.st16{filter:url(#Adobe_OpacityMaskFilter);}
	.st17{fill:#2D1913;}
	.st18{mask:url(#SVGID_4_);fill:#FFFFFF;}
	.st19{fill:#003B54;}
	.st20{fill:#003B54;stroke:#FFFFFF;stroke-width:0.5;stroke-miterlimit:10;}
</style>
<g>
	<g>
		<rect x="-0.4" y="2.7" class="st0" width="683.8" height="454.4"/>
		<g>
			<defs>
				<rect id="SVGID_8_" x="-0.8" width="684.8" height="459"/>
			</defs>
			<clipPath id="SVGID_1_">
				<use xlink:href="#SVGID_8_"  style="overflow:visible;"/>
			</clipPath>
			<polygon class="st1" points="318.3,106.1 318.3,67.9 234.2,67.9 234.2,144.3 317.4,144.3 318.3,144.3 343.9,144.3 343.9,106.1 
							"/>
			<g class="st2">
				
					<rect x="390.6" y="-14.9" transform="matrix(0.9965 -8.355580e-02 8.355580e-02 0.9965 -18.2664 33.5866)" class="st3" width="3" height="499.8"/>
				<rect x="430.3" y="-12.2" class="st4" width="262.4" height="237.1"/>
				<path class="st3" d="M695.8,487.5H-52.5v-503h748.3V487.5z M-49.5,484.4h742.3V-12.5H-49.5V484.4z"/>
				<g>
					<g>
						<path class="st5" d="M-19.8,228.3c0,1.9-1.6,3.5-3.5,3.5c-1.9,0-3.5-1.6-3.5-3.5c0-1.9,1.6-3.5,3.5-3.5
							C-21.3,224.8-19.8,226.4-19.8,228.3z"/>
						<g>
							<g>
								<g>
									<g>
										<path class="st5" d="M-38.1,187.9v-1.4h6.5v-1.4h-4.6v-4h9.3v-1.3h-9.3v-1.4h11.1v4h-9.3v1.3h9.6v1.4h-5v1.4h6.8v1.4
											H-38.1z M-32.8,192.9c-1.1,0.6-2.2,1-3.2,1.1l-1.1-1.3c2.4-0.4,3.9-1,4.5-1.8c0.7-0.8,1-1.5,1-2v-0.3h2.1v0.3
											c0,0.5,0.4,1.1,1.2,2c0.8,0.8,2.3,1.4,4.4,1.8L-25,194c-0.8,0-1.8-0.4-3-1c-1.2-0.6-2-1.3-2.5-2.2
											C-31,191.6-31.7,192.3-32.8,192.9z"/>
										<path class="st5" d="M-17,190.3c-0.5,0-1.3,0.1-2.2,0.1l-3,0v-10.5h5.4v1.6h-3.7v7.3l2,0c0.5,0,1.1,0,1.6-0.1
											c0.5,0,0.9-0.1,1.2-0.1v1.6C-16,190.2-16.4,190.3-17,190.3z M-14.6,193.2v-7.6h-2.9V184h2.9v-5.7h1.7v14.9H-14.6z
											 M-11.3,194v-16h1.7v16H-11.3z"/>
										<path class="st5" d="M-37.1,212.3v-10.6h7.5v10.6H-37.1z M-31.3,203.2h-4.1v7.6h4.1V203.2z M-25.1,199.8v6.2h2.3v1.7h-2.3
											v8.1h-1.7v-16H-25.1z"/>
										<path class="st5" d="M-23.6,213.5V212h15.2v1.5H-23.6z M-21.5,209.9v-8.5h11.1v1.5h-9.4v2h9.3v1.5h-9.3v2h9.5v1.5H-21.5z"
											/>
									</g>
								</g>
							</g>
						</g>
					</g>
				</g>
				<g>
					<g>
						<path class="st5" d="M83.6,83.4c0,1.9-1.6,3.5-3.5,3.5c-1.9,0-3.5-1.6-3.5-3.5s1.6-3.5,3.5-3.5C82,79.9,83.6,81.5,83.6,83.4z"
							/>
						<g>
							<g>
								<g>
									<g>
										<path class="st5" d="M58.4,101.9c-0.8,0.7-1.8,1-2.8,1c-1.1,0-2-0.3-2.8-1c-0.8-0.7-1.3-1.6-1.3-2.7c0-1.1,0.4-2,1.2-2.7
											c0.8-0.7,1.8-1,2.9-1c1.1,0,2,0.3,2.8,1c0.8,0.7,1.2,1.6,1.2,2.7C59.6,100.3,59.2,101.2,58.4,101.9z M57.2,97.7
											c-0.5-0.4-1-0.6-1.6-0.6c-0.6,0-1.2,0.2-1.6,0.6c-0.5,0.4-0.7,0.9-0.7,1.5c0,0.6,0.2,1.1,0.7,1.5c0.5,0.4,1,0.6,1.6,0.6
											c0.6,0,1.2-0.2,1.6-0.6c0.5-0.4,0.7-0.9,0.7-1.5C57.9,98.6,57.7,98.1,57.2,97.7z M53.7,110.8v-4h9v-1.2h-9v-1.4h10.9v4h-9
											v1.2H65v1.4H53.7z M62.9,103.4V95h1.7v8.4H62.9z"/>
										<path class="st5" d="M74.5,103.6c-0.8-0.4-1.6-0.9-2.4-1.6c-0.8-0.7-1.3-1.4-1.7-2c-0.3,0.8-0.9,1.6-1.7,2.3
											c-0.8,0.8-1.6,1.4-2.3,1.8l-1.3-1.2c1.9-0.9,3.1-1.9,3.6-3.1c0.5-1.2,0.8-2.2,0.8-2.9v-1.4h1.8v1.4c0,0.7,0.2,1.6,0.7,2.7
											c0.5,1.1,1.6,2,3.4,2.7L74.5,103.6z M78,110.3c-1,0.6-2.4,0.9-4.3,0.9c-1.9,0-3.3-0.3-4.3-0.9c-1-0.6-1.5-1.4-1.5-2.3
											c0-0.9,0.5-1.7,1.5-2.3c1-0.6,2.4-0.9,4.3-0.9c1.9,0,3.3,0.3,4.3,0.9c1,0.6,1.5,1.4,1.5,2.3C79.5,108.9,79,109.7,78,110.3
											z M76.6,106.7c-0.7-0.3-1.6-0.5-2.8-0.5c-1.2,0-2.1,0.2-2.8,0.5c-0.7,0.3-1.1,0.7-1.1,1.3c0,0.5,0.4,0.9,1.1,1.3
											c0.7,0.3,1.6,0.5,2.8,0.5c1.1,0,2.1-0.2,2.8-0.5c0.7-0.3,1.1-0.7,1.1-1.3C77.6,107.5,77.3,107.1,76.6,106.7z M77.5,104.5
											v-4.8h-3.2v-1.6h3.2V95h1.7v9.5H77.5z"/>
										<path class="st5" d="M87.7,102.5c-0.8,0.8-1.8,1.2-3,1.2c-1.2,0-2.2-0.4-3-1.2c-0.8-0.8-1.2-1.8-1.2-2.9
											c0-1.1,0.4-2.1,1.2-2.9c0.8-0.8,1.8-1.2,3-1.2c1.2,0,2.2,0.4,3,1.2c0.8,0.8,1.2,1.8,1.2,2.9
											C88.9,100.7,88.5,101.7,87.7,102.5z M86.5,97.8c-0.4-0.5-1-0.7-1.8-0.7c-0.8,0-1.4,0.2-1.8,0.7c-0.4,0.5-0.6,1.1-0.6,1.8
											c0,0.7,0.2,1.3,0.6,1.8c0.4,0.5,1,0.7,1.8,0.7c0.8,0,1.4-0.2,1.8-0.7c0.4-0.5,0.6-1.1,0.6-1.8
											C87.1,98.9,86.9,98.3,86.5,97.8z M82.9,110.6v-5.1h1.8v3.5h9.5v1.5H82.9z M92.1,106.5V95h1.7v11.6H92.1z"/>
										<path class="st5" d="M94.3,109v-1.5h6.7v-3h-5.4v-1.5h2.5l-0.4-4.5h1.7l0.4,4.5h4.2l0.4-4.5h1.7l-0.4,4.5h2.5v1.5h-5.4v3
											h6.7v1.5H94.3z M96,97.9v-1.5h11.9v1.5H96z"/>
										<path class="st5" d="M65.6,128.1c-0.7,1.1-1.7,1.6-3,1.6c-1.3,0-2.3-0.5-3-1.6c-0.7-1.1-1.1-2.5-1.1-4.3
											c0-1.8,0.4-3.2,1.1-4.3c0.7-1.1,1.7-1.6,3-1.6c1.3,0,2.3,0.5,3,1.6c0.7,1.1,1.1,2.5,1.1,4.3
											C66.7,125.6,66.4,127.1,65.6,128.1z M64.4,120.8c-0.4-0.9-1-1.3-1.8-1.3c-0.8,0-1.4,0.4-1.8,1.3c-0.4,0.9-0.6,1.9-0.6,3
											c0,1.2,0.2,2.2,0.6,3c0.4,0.9,1,1.3,1.8,1.3c0.8,0,1.4-0.4,1.8-1.3c0.4-0.9,0.6-1.9,0.6-3C65,122.7,64.8,121.7,64.4,120.8
											z M71.1,116.8v6.6h2.3v1.6h-2.3v7.8h-1.7v-16H71.1z"/>
										<path class="st5" d="M81,129c-0.7,0-1.4,0.1-2.1,0.1l-6.3,0.1v-1.6h2.1l-0.2-6.8h1.7l0.2,6.8c0.5,0,1,0,1.3,0
											c0.4,0,0.7,0,1.1,0l0.2-6.8h1.7l-0.2,6.7c0.3,0,0.7-0.1,1.2-0.1c0.5,0,0.9-0.1,1.3-0.1v1.6C82.4,128.9,81.7,128.9,81,129z
											 M73.1,120.1v-1.5h9.2v1.5H73.1z M85.6,116.8v6.2h2.3v1.6h-2.3v8.2h-1.7v-16H85.6z"/>
										<path class="st5" d="M87,130.5V129h15.2v1.5H87z M89.1,126.9v-8.5h11.1v1.5h-9.4v2h9.3v1.5h-9.3v2h9.5v1.5H89.1z"/>
									</g>
								</g>
							</g>
						</g>
					</g>
				</g>
				<g>
					<path class="st5" d="M447.3,244.9c0,1.9-1.6,3.5-3.5,3.5c-1.9,0-3.5-1.6-3.5-3.5c0-1.9,1.6-3.5,3.5-3.5
						C445.8,241.3,447.3,242.9,447.3,244.9z"/>
					<g>
						<g>
							<path class="st5" d="M430.2,269.3v5.2h-1.7v-5.2h-6.7v-1.5h15.2v1.5H430.2z M423.7,266.1v-7.2h1.7v1.9h7.8v-1.9h1.7v7.2
								H423.7z M433.2,262.4h-7.8v2.2h7.8V262.4z"/>
							<path class="st5" d="M445.4,267.9c-0.7-0.4-1.5-0.9-2.3-1.7c-0.8-0.8-1.4-1.5-1.7-2.3c-0.3,0.9-0.8,1.7-1.5,2.5
								c-0.7,0.8-1.6,1.4-2.5,1.9l-1.2-1.2c1.6-0.9,2.8-1.9,3.4-3c0.6-1.1,0.9-2.4,0.9-3.8V259h1.8v1.3c0,1.3,0.3,2.5,1,3.6
								c0.7,1.1,1.7,2,3.2,2.7L445.4,267.9z M439.3,274.2v-5h1.7v3.5h9.2v1.5H439.3z M449.8,258.6v4.6h2.2v1.5h-2.2v5.4h-1.7v-11.6
								H449.8z"/>
							<path class="st5" d="M460.4,267.7c-0.7-0.3-1.5-0.7-2.1-1.3c-0.7-0.6-1.2-1.2-1.7-1.9c-0.2,0.7-0.7,1.4-1.5,2.1
								c-0.8,0.7-1.6,1.3-2.4,1.7l-1.3-1.4c1.5-0.6,2.5-1.4,3.2-2.3c0.7-0.9,1.1-1.9,1.1-3v-0.5h-3.2v-1.5h8.3v1.5h-3.2v0.5
								c0,1,0.3,2,1,2.8c0.7,0.8,1.6,1.5,2.9,2L460.4,267.7z M454.3,274.2v-5.1h1.8v3.6h9.5v1.5H454.3z M463.5,270.2v-11.6h1.7v11.6
								H463.5z"/>
							<path class="st5" d="M428.4,289.1h-6.7v-1.5h15.2v1.5h-6.7v1.5c1.6,0.1,2.9,0.4,3.8,0.9c0.9,0.5,1.3,1.2,1.3,2
								c0,0.9-0.5,1.6-1.6,2.2c-1,0.6-2.5,0.9-4.5,0.9c-1.9,0-3.4-0.3-4.5-0.9c-1-0.6-1.6-1.3-1.6-2.2c0-0.8,0.4-1.5,1.3-2
								c0.9-0.5,2.2-0.9,3.8-1V289.1z M431.6,284c0.8,0.7,2.2,1.2,4.4,1.6l-1.1,1.3c-1.2-0.1-2.3-0.5-3.3-1.1
								c-1-0.6-1.7-1.1-2.2-1.7c-0.4,0.6-1.2,1.2-2.3,1.7c-1.1,0.5-2.2,0.9-3.3,1l-1.1-1.3c1.7-0.3,3-0.7,3.9-1.3
								c1-0.6,1.5-1.2,1.7-1.8h-4.8v-1.5h11.6v1.5h-4.8C430.4,282.8,430.9,283.3,431.6,284z M432.3,292.4c-0.8-0.3-1.7-0.4-2.9-0.4
								c-1.2,0-2.2,0.1-3,0.4c-0.8,0.3-1.1,0.7-1.1,1.2c0,0.5,0.4,0.9,1.1,1.2c0.8,0.3,1.7,0.4,3,0.4c1.2,0,2.2-0.1,2.9-0.4
								c0.8-0.3,1.1-0.7,1.1-1.2C433.4,293.1,433,292.7,432.3,292.4z"/>
							<path class="st5" d="M436.9,284.2v-1.4h9.6v1.4H436.9z M438.7,289.5c-0.8-0.5-1.1-1.1-1.1-1.9c0-0.7,0.4-1.4,1.1-1.9
								c0.8-0.5,1.8-0.7,3-0.7c1.3,0,2.3,0.2,3,0.7c0.7,0.5,1.1,1.1,1.1,1.9c0,0.8-0.4,1.4-1.1,1.9c-0.7,0.5-1.7,0.8-3.1,0.8
								C440.4,290.2,439.4,290,438.7,289.5z M447.9,296.4V293h-9.4v-1.4h11.2v4.8H447.9z M439.1,281.7v-1.4h5v1.4H439.1z
								 M443.4,286.6c-0.4-0.2-0.9-0.3-1.7-0.3c-0.8,0-1.3,0.1-1.7,0.4c-0.4,0.2-0.6,0.5-0.6,0.9c0,0.4,0.2,0.7,0.6,1
								c0.4,0.2,1,0.4,1.7,0.4c0.8,0,1.3-0.1,1.7-0.4c0.4-0.3,0.6-0.6,0.6-1C443.9,287.2,443.7,286.9,443.4,286.6z M449.7,286.3v4.2
								H448v-10.2h1.7v4.4h2.2v1.6H449.7z"/>
							<path class="st5" d="M450.9,294.2v-1.5h3.5v-5.5h1.7v5.5h2.3v-5.5h1.7v5.5h5.9v1.5H450.9z M464.1,286
								c-0.2,1.7-0.4,3.3-0.7,4.6h-1.7c0-0.1,0.2-1,0.4-2.6c0.3-1.6,0.4-3.1,0.4-4.3h-10.1v-1.5h12C464.4,283,464.3,284.3,464.1,286
								z"/>
						</g>
					</g>
					<path class="st5" d="M517,244.9c0,1.9-1.6,3.5-3.5,3.5c-1.9,0-3.5-1.6-3.5-3.5c0-1.9,1.6-3.5,3.5-3.5
						C515.4,241.3,517,242.9,517,244.9z"/>
					<g>
						<g>
							<path class="st5" d="M508.1,267.2c-0.8-0.4-1.6-0.9-2.4-1.6c-0.8-0.7-1.3-1.4-1.7-2c-0.3,0.8-0.9,1.6-1.7,2.3
								c-0.8,0.8-1.6,1.4-2.3,1.8l-1.3-1.2c1.9-0.9,3.1-1.9,3.6-3.1c0.5-1.2,0.7-2.2,0.7-2.9V259h1.8v1.4c0,0.7,0.3,1.6,0.8,2.7
								c0.5,1.1,1.6,2,3.4,2.7L508.1,267.2z M511.6,273.9c-1,0.6-2.4,0.9-4.3,0.9c-1.9,0-3.3-0.3-4.3-0.9c-1-0.6-1.5-1.4-1.5-2.3
								c0-0.9,0.5-1.7,1.5-2.3c1-0.6,2.4-0.9,4.3-0.9c1.9,0,3.3,0.3,4.3,0.9c1,0.6,1.5,1.4,1.5,2.3
								C513,272.6,512.6,273.3,511.6,273.9z M510.1,270.3c-0.7-0.3-1.6-0.5-2.8-0.5c-1.2,0-2.1,0.2-2.8,0.5
								c-0.7,0.3-1.1,0.7-1.1,1.3c0,0.5,0.4,0.9,1.1,1.3c0.7,0.3,1.6,0.5,2.8,0.5c1.2,0,2.1-0.2,2.8-0.5c0.7-0.3,1.1-0.7,1.1-1.3
								C511.2,271.1,510.8,270.7,510.1,270.3z M511.1,268.1v-4.8h-3.2v-1.6h3.2v-3.2h1.7v9.5H511.1z"/>
							<path class="st5" d="M522.8,271.4c-0.7-0.5-1.4-1.1-2.2-2c-0.8-0.9-1.3-1.7-1.5-2.5c-0.3,1.1-0.9,2-1.7,2.9
								c-0.8,0.9-1.6,1.6-2.4,2.1l-1.4-1.2c1.7-1,2.9-2.2,3.6-3.6c0.6-1.3,0.9-2.7,0.9-4v-1.2h-3.4v-1.6h8.8v1.6H520v1.2
								c0,1.3,0.3,2.5,0.9,3.8c0.6,1.2,1.6,2.3,3.1,3.2L522.8,271.4z M525.8,274.6v-16h1.7v16H525.8z"/>
							<path class="st5" d="M484.2,294.7v-1.5h6.7v-3.3h1.8v3.3h6.7v1.5H484.2z M497.3,290.6c-0.9-0.1-1.9-0.5-3.2-1.3
								c-1.2-0.7-2-1.5-2.4-2.2c-0.4,0.8-1.2,1.5-2.4,2.2c-1.2,0.7-2.3,1.1-3.2,1.3l-1.1-1.4c2.1-0.5,3.6-1.1,4.4-2
								c0.8-0.8,1.2-1.5,1.4-2h-4.9v-1.5h11.8v1.5h-4.9c0.1,0.4,0.5,1.1,1.3,1.9c0.8,0.8,2.3,1.5,4.3,2L497.3,290.6z M488.6,282.3
								v-1.5h6.2v1.5H488.6z"/>
							<path class="st5" d="M498.7,289.2v-1.5h15.2v1.5H498.7z M510.8,291.1c1,0.6,1.6,1.4,1.6,2.3c0,0.9-0.5,1.7-1.6,2.3
								c-1,0.6-2.5,0.9-4.5,0.9c-1.9,0-3.4-0.3-4.5-0.9c-1-0.6-1.6-1.4-1.6-2.3c0-1,0.5-1.7,1.6-2.3c1-0.6,2.5-0.9,4.5-0.9
								C508.3,290.3,509.8,290.5,510.8,291.1z M500.7,286.3v-5.4h11.2v1.5h-9.5v2.3h9.7v1.5H500.7z M509.3,292.1
								c-0.8-0.3-1.7-0.5-3-0.5c-1.2,0-2.2,0.2-3,0.5c-0.7,0.3-1.1,0.7-1.1,1.3c0,0.6,0.4,1,1.1,1.3c0.7,0.3,1.7,0.4,3,0.4
								c1.2,0,2.2-0.1,3-0.4c0.8-0.3,1.1-0.7,1.1-1.3C510.4,292.9,510,292.4,509.3,292.1z"/>
							<path class="st5" d="M513.8,284.2v-1.4h9.6v1.4H513.8z M515.6,289.5c-0.8-0.5-1.1-1.1-1.1-1.9c0-0.7,0.4-1.4,1.1-1.9
								c0.8-0.5,1.8-0.7,3-0.7c1.3,0,2.3,0.2,3,0.7c0.7,0.5,1.1,1.1,1.1,1.9c0,0.8-0.4,1.4-1.1,1.9c-0.7,0.5-1.7,0.8-3,0.8
								C517.4,290.2,516.4,290,515.6,289.5z M524.9,296.4V293h-9.4v-1.4h11.2v4.8H524.9z M516.1,281.7v-1.4h5.1v1.4H516.1z
								 M520.3,286.6c-0.4-0.2-0.9-0.3-1.7-0.3c-0.8,0-1.3,0.1-1.7,0.4c-0.4,0.2-0.6,0.5-0.6,0.9c0,0.4,0.2,0.7,0.6,1
								c0.4,0.2,1,0.4,1.7,0.4c0.8,0,1.3-0.1,1.7-0.4c0.4-0.3,0.6-0.6,0.6-1C520.9,287.2,520.7,286.9,520.3,286.6z M526.6,286.3v4.2
								h-1.7v-10.2h1.7v4.4h2.2v1.6H526.6z"/>
							<path class="st5" d="M527.9,294.2v-1.5h3.5v-5.5h1.7v5.5h2.3v-5.5h1.7v5.5h5.9v1.5H527.9z M541.1,286
								c-0.2,1.7-0.4,3.3-0.7,4.6h-1.7c0-0.1,0.2-1,0.4-2.6c0.3-1.6,0.4-3.1,0.4-4.3h-10.1v-1.5h12C541.4,283,541.3,284.3,541.1,286
								z"/>
						</g>
					</g>
				</g>
				
					<rect x="236.4" y="423.8" transform="matrix(0.9805 -0.1965 0.1965 0.9805 -74.7614 100.2112)" class="st6" width="462.4" height="6.1"/>
				<g>
					<g>
						<path class="st7" d="M611.3,421l-154,23.8c-3,0.5-5.9-1.6-6.3-4.6l-3.7-23.7c-0.5-3,1.6-5.9,4.6-6.3l154-23.8
							c3-0.5,5.9,1.6,6.3,4.6l3.7,23.7C616.4,417.7,614.3,420.6,611.3,421z"/>
					</g>
				</g>
				<g>
					<g>
						<path class="st8" d="M515.1,421l0.9,5.9l-2.7,0.4l-0.9-5.9l-7.5,1.2l-0.4-2.4l17.8-2.8l0.4,2.4L515.1,421z M506.4,418.2
							l-1.3-8.6l2.7-0.4l0.3,2l8-1.2l-0.3-2l2.7-0.4l1.3,8.6L506.4,418.2z M516.5,412.4l-8,1.2l0.3,1.8l8-1.2L516.5,412.4z"/>
						<path class="st8" d="M532.5,416.4c-0.5-0.1-1.3-0.3-2.2-0.8c-1-0.4-1.7-1-2.3-1.6c-0.2,0.7-0.7,1.4-1.4,2.2
							c-0.7,0.8-1.5,1.4-2.3,1.9l-2-1.9c0.9-0.4,1.8-1.1,2.7-2.2c0.9-1.1,1.2-2.3,1-3.6l-0.1-0.6l-3.4,0.5l-0.4-2.4l9.5-1.5l0.4,2.4
							l-3.4,0.5l0.1,0.6c0.2,1.3,0.8,2.2,1.8,2.8c1,0.6,2,1,3.1,1.2L532.5,416.4z M527.1,424.7l-1-6.2l2.7-0.4l0.6,3.7l10.9-1.7
							l0.4,2.4L527.1,424.7z M536.8,418.3l-1-6.7l-3.1,0.5l-0.4-2.6l3.1-0.5l-0.7-4.3l2.7-0.4l2.1,13.5L536.8,418.3z"/>
						<path class="st8" d="M553.6,413.1l-0.4-2.6l-3.9,0.6c-0.4,0.6-0.9,1.2-1.5,1.6c-0.6,0.4-1.4,0.7-2.2,0.9
							c-1.5,0.2-2.8-0.1-3.9-0.9c-1.1-0.8-1.8-1.9-2-3.3c-0.2-1.3,0.1-2.6,0.9-3.7c0.8-1.1,2-1.8,3.5-2c0.8-0.1,1.6-0.1,2.3,0.1
							c0.7,0.2,1.4,0.5,1.9,1l4-0.6l-0.3-2.1l2.7-0.4l1.7,11L553.6,413.1z M546.3,406.7c-0.5-0.4-1.1-0.6-1.9-0.5
							c-0.8,0.1-1.3,0.5-1.7,1c-0.3,0.6-0.5,1.2-0.4,1.9c0.1,0.7,0.4,1.2,0.9,1.6c0.5,0.4,1.1,0.6,1.9,0.5c0.8-0.1,1.3-0.5,1.7-1
							c0.3-0.6,0.4-1.2,0.3-1.8C547.1,407.7,546.8,407.1,546.3,406.7z M554.7,420.9l-0.7-4.4l-10.8,1.7l-0.4-2.5l13.5-2.1l1.1,6.9
							L554.7,420.9z M552.6,406.7l-2.8,0.4c0,0.1,0.1,0.3,0.1,0.4c0,0.1,0.1,0.3,0.1,0.4c0,0.1,0,0.2,0,0.3c0,0.1,0,0.2,0,0.3
							l2.8-0.4L552.6,406.7z"/>
					</g>
				</g>
				<rect x="232.6" y="-14" class="st9" width="1.5" height="158.6"/>
				<polygon class="st3" points="103,484.5 100,484.5 133.2,-14.5 136.2,-14.5 				"/>
				<rect x="11.6" y="144.6" class="st10" width="372.3" height="3"/>
				<rect x="22.2" y="65.8" class="st10" width="357.4" height="3"/>
				<polygon class="st3" points="-14.8,369.4 -17.8,369 32.6,-14.1 35.6,-13.7 				"/>
				<g>
					<g>
						<path class="st5" d="M245,160.1c0,1.9-1.6,3.5-3.5,3.5c-1.9,0-3.5-1.6-3.5-3.5c0-1.9,1.6-3.5,3.5-3.5
							C243.5,156.6,245,158.1,245,160.1z"/>
						<g>
							<g>
								<g>
									<g>
										<path class="st5" d="M227.5,184.4c-0.7,1.1-1.7,1.6-3,1.6c-1.3,0-2.3-0.5-3-1.6c-0.8-1.1-1.1-2.5-1.1-4.3
											c0-1.8,0.4-3.2,1.1-4.3c0.8-1.1,1.8-1.6,3-1.6c1.3,0,2.3,0.5,3,1.6c0.7,1.1,1.1,2.5,1.1,4.3
											C228.6,181.9,228.2,183.3,227.5,184.4z M226.3,177.1c-0.4-0.9-1-1.3-1.8-1.3c-0.8,0-1.4,0.4-1.8,1.3
											c-0.4,0.9-0.6,1.9-0.6,3c0,1.2,0.2,2.2,0.6,3c0.4,0.9,1,1.3,1.8,1.3c0.8,0,1.4-0.4,1.8-1.3c0.4-0.9,0.6-1.9,0.6-3
											C226.9,178.9,226.7,177.9,226.3,177.1z M231.6,189v-16h1.7v16H231.6z"/>
										<path class="st5" d="M234.9,185.6v-10.6h7.5v10.6H234.9z M240.7,176.5h-4.1v7.6h4.1V176.5z M246.9,173v6.2h2.3v1.7h-2.3
											v8.1h-1.7v-16H246.9z"/>
										<path class="st5" d="M248.5,186.8v-1.5h15.2v1.5H248.5z M250.6,183.1v-8.5h11.1v1.5h-9.4v2h9.3v1.5h-9.3v2h9.5v1.5H250.6z
											"/>
										<path class="st5" d="M204.8,208.5V207H220v1.5H204.8z M206.9,204.9v-8.5H218v1.5h-9.4v2h9.3v1.5h-9.3v2h9.5v1.5H206.9z"/>
										<path class="st5" d="M225.9,207.3c-0.7,0.1-1.5,0.1-2.3,0.1l-3.1,0v-6.3h4v-3h-4v-1.5h5.7v6.1h-4v3.2l2,0
											c0.6,0,1.2,0,1.8-0.1c0.7,0,1.2-0.1,1.5-0.1v1.5C227.1,207.1,226.6,207.2,225.9,207.3z M228.5,210v-7.6h-1.8v-1.7h1.8
											v-5.6h1.7V210H228.5z M231.7,210.8v-16h1.7v16H231.7z"/>
										<path class="st5" d="M242,206.2c-0.7,1.1-1.7,1.6-3,1.6c-1.3,0-2.3-0.5-3-1.6c-0.8-1.1-1.1-2.5-1.1-4.3
											c0-1.8,0.4-3.2,1.1-4.3c0.8-1.1,1.8-1.6,3-1.6c1.3,0,2.3,0.5,3,1.6c0.7,1.1,1.1,2.5,1.1,4.3
											C243.1,203.7,242.8,205.1,242,206.2z M240.8,198.9c-0.4-0.9-1-1.3-1.8-1.3c-0.8,0-1.4,0.4-1.8,1.3c-0.4,0.9-0.6,1.9-0.6,3
											c0,1.2,0.2,2.2,0.6,3c0.4,0.9,1,1.3,1.8,1.3c0.8,0,1.4-0.4,1.8-1.3c0.4-0.9,0.6-1.9,0.6-3
											C241.4,200.7,241.2,199.7,240.8,198.9z M246.2,210.8v-16h1.7v16H246.2z"/>
										<path class="st5" d="M256.8,206.9c-1,0.1-2.1,0.2-3.3,0.2l-3.6,0v-10.5h7.4v1.5h-5.7v7.4l2.6,0c0.8,0,1.6-0.1,2.6-0.2
											c1-0.1,1.6-0.2,1.8-0.2v1.5C258.4,206.7,257.8,206.8,256.8,206.9z M260.5,210.8v-8.6h-4.2v-1.5h4.2v-5.9h1.7v16H260.5z"/>
										<path class="st5" d="M263.1,208.4v-1.5h15.2v1.5H263.1z M268.4,202.7c-1.1,0.9-2.3,1.6-3.4,1.9l-1.2-1.3
											c2.6-0.9,4.2-2.1,4.9-3.4c0.7-1.3,1-2.4,1-3.1v-1.1h1.8v1.1c0,0.8,0.4,1.8,1.1,3.1c0.7,1.3,2.3,2.5,4.8,3.4l-1.2,1.3
											c-1.2-0.4-2.3-1-3.4-2c-1.1-1-1.8-1.9-2.2-2.8C270.3,200.8,269.6,201.7,268.4,202.7z"/>
									</g>
								</g>
							</g>
						</g>
					</g>
				</g>
				<g>
					<g>
						<path class="st5" d="M257.9,267.3c0,1.9-1.6,3.5-3.5,3.5c-1.9,0-3.5-1.6-3.5-3.5c0-1.9,1.6-3.5,3.5-3.5
							C256.3,263.8,257.9,265.4,257.9,267.3z"/>
						<g>
							<g>
								<path class="st5" d="M226.2,291.8v5.2h-1.7v-5.2h-6.7v-1.5h15.2v1.5H226.2z M219.7,288.6v-7.2h1.7v1.9h7.8v-1.9h1.7v7.2
									H219.7z M229.2,284.9h-7.8v2.2h7.8V284.9z"/>
								<path class="st5" d="M241.4,290.4c-0.7-0.4-1.5-0.9-2.3-1.7c-0.8-0.8-1.4-1.5-1.7-2.3c-0.3,0.9-0.8,1.7-1.5,2.5
									c-0.7,0.8-1.6,1.4-2.5,1.9l-1.2-1.2c1.6-0.9,2.8-1.9,3.4-3c0.6-1.1,0.9-2.4,0.9-3.8v-1.3h1.8v1.3c0,1.3,0.3,2.5,1,3.6
									c0.7,1.1,1.7,2,3.2,2.7L241.4,290.4z M235.3,296.7v-5h1.7v3.4h9.2v1.5H235.3z M245.8,281.1v4.6h2.2v1.5h-2.2v5.4H244v-11.6
									H245.8z"/>
								<path class="st5" d="M256.4,290.2c-0.7-0.3-1.5-0.7-2.1-1.3c-0.7-0.6-1.2-1.2-1.7-1.9c-0.2,0.7-0.7,1.4-1.5,2.1
									c-0.8,0.7-1.6,1.3-2.4,1.7l-1.3-1.4c1.5-0.6,2.5-1.4,3.2-2.3c0.7-0.9,1.1-1.9,1.1-3v-0.5h-3.2V282h8.3v1.5h-3.2v0.5
									c0,1,0.3,2,1,2.8c0.7,0.8,1.6,1.5,2.9,2L256.4,290.2z M250.3,296.7v-5.1h1.8v3.6h9.5v1.5H250.3z M259.5,292.6v-11.6h1.7
									v11.6H259.5z"/>
								<path class="st5" d="M269.6,290.2v6.8h-1.8v-6.8h-6.3v-1.5h10.7c0.2-0.5,0.3-1.3,0.5-2.4c0.2-1.1,0.3-2,0.4-2.8h-9.9V282
									H275c0,0.3-0.1,1.3-0.3,3c-0.2,1.7-0.5,2.9-0.7,3.8h2.7v1.5H269.6z"/>
								<path class="st5" d="M285.6,290.2c-0.6-0.1-1.4-0.4-2.2-1c-0.9-0.6-1.5-1.1-1.8-1.7c-0.3,0.6-0.8,1.2-1.7,1.9
									c-0.9,0.7-1.7,1.1-2.4,1.3l-1.1-1.4c1.9-0.6,3-1.4,3.5-2.3c0.5-0.9,0.7-1.5,0.7-1.8h-3.2v-1.5h8.3v1.5h-3.2
									c0,0.3,0.3,0.9,1,1.8c0.6,0.9,1.7,1.5,3.1,1.8L285.6,290.2z M288.8,292c1,0.6,1.5,1.3,1.5,2.2s-0.5,1.6-1.4,2.2
									c-1,0.6-2.4,0.9-4.3,0.9c-1.9,0-3.3-0.3-4.3-0.9c-1-0.6-1.5-1.3-1.5-2.2s0.5-1.6,1.5-2.2c1-0.6,2.4-0.9,4.3-0.9
									C286.4,291.1,287.8,291.4,288.8,292z M279.1,282.5v-1.5h4.8v1.5H279.1z M287.2,293c-0.7-0.3-1.6-0.5-2.7-0.5
									c-1.2,0-2.1,0.2-2.8,0.5c-0.7,0.3-1,0.7-1,1.2c0,0.5,0.3,0.9,1,1.2c0.7,0.3,1.6,0.5,2.8,0.5c1.2,0,2.1-0.1,2.7-0.5
									c0.7-0.3,1-0.7,1-1.2C288.2,293.7,287.9,293.3,287.2,293z M288.5,290.9v-3.8h-3v-1.5h3v-4.6h1.7v9.9H288.5z"/>
							</g>
						</g>
					</g>
				</g>
				<g>
					<path class="st5" d="M270.8,375.9c0,1.9-1.6,3.5-3.5,3.5c-1.9,0-3.5-1.6-3.5-3.5c0-1.9,1.6-3.5,3.5-3.5
						C269.2,372.4,270.8,374,270.8,375.9z"/>
				</g>
				<g>
					<g>
						<g>
							<path class="st5" d="M230.4,400.2v5.2h-1.7v-5.2h-6.7v-1.5h15.2v1.5H230.4z M223.9,396.9v-7.2h1.7v1.9h7.8v-1.9h1.7v7.2
								H223.9z M233.4,393.2h-7.8v2.2h7.8V393.2z"/>
							<path class="st5" d="M245.6,398.8c-0.7-0.4-1.5-0.9-2.3-1.7c-0.8-0.8-1.4-1.6-1.7-2.3c-0.3,0.9-0.8,1.7-1.5,2.5
								c-0.7,0.8-1.6,1.4-2.5,1.9l-1.2-1.2c1.6-0.9,2.8-1.9,3.4-3c0.6-1.1,0.9-2.4,0.9-3.8v-1.3h1.8v1.3c0,1.3,0.3,2.5,1,3.6
								c0.7,1.1,1.7,2,3.2,2.7L245.6,398.8z M239.5,405.1v-5h1.7v3.5h9.2v1.5H239.5z M249.9,389.4v4.6h2.2v1.5h-2.2v5.4h-1.7v-11.6
								H249.9z"/>
							<path class="st5" d="M260.6,398.6c-0.7-0.3-1.5-0.7-2.1-1.3c-0.7-0.6-1.2-1.2-1.7-1.9c-0.2,0.7-0.7,1.4-1.5,2.1
								c-0.8,0.7-1.6,1.3-2.4,1.7l-1.3-1.4c1.5-0.6,2.5-1.4,3.3-2.3c0.7-0.9,1.1-1.9,1.1-3v-0.5h-3.2v-1.5h8.3v1.5h-3.2v0.5
								c0,1,0.3,2,1,2.8c0.7,0.8,1.6,1.5,2.9,2L260.6,398.6z M254.5,405.1V400h1.8v3.6h9.5v1.5H254.5z M263.6,401v-11.6h1.7V401
								H263.6z"/>
							<path class="st5" d="M272.8,395.5c-1.2,1.6-3,2.8-5.6,3.4l-0.9-1.2c1.5-0.3,2.9-1,4.2-2.2c1.3-1.2,2-2.4,2.1-3.5h-5.4v-1.5
								h7.5C274.6,392.2,274,393.9,272.8,395.5z M278.4,404.7c-1,0.6-2.5,0.9-4.3,0.9c-1.9,0-3.3-0.3-4.3-0.9
								c-1-0.6-1.5-1.4-1.5-2.4c0-1,0.5-1.7,1.5-2.4c1-0.6,2.5-0.9,4.3-0.9c1.9,0,3.3,0.3,4.3,0.9c1,0.6,1.5,1.4,1.5,2.4
								C279.9,403.3,279.4,404.1,278.4,404.7z M277,401.1c-0.8-0.3-1.7-0.5-2.9-0.5c-1.2,0-2.1,0.2-2.9,0.5
								c-0.8,0.3-1.1,0.8-1.1,1.3c0,0.6,0.4,1,1.1,1.3c0.8,0.3,1.7,0.5,2.9,0.5c1.1,0,2.1-0.2,2.9-0.5c0.8-0.3,1.2-0.8,1.2-1.3
								C278.1,401.8,277.7,401.4,277,401.1z M278,399v-2.2h-3.1v-1.5h3.1v-1.8h-2.8v-1.5h2.8v-2.5h1.7v9.6H278z"/>
							<path class="st5" d="M289.4,397.8c-0.6-0.2-1.3-0.5-2.1-1.1c-0.8-0.5-1.3-1-1.6-1.4c-0.3,0.5-0.8,1.1-1.7,1.7
								c-0.8,0.6-1.6,1-2.4,1.2l-1.1-1.4c1.4-0.4,2.5-1,3.1-1.7c0.6-0.8,1-1.3,1.1-1.6h-3.2v-1.5h8.3v1.5h-3.2
								c0.1,0.3,0.5,0.8,1.1,1.4c0.7,0.6,1.5,1.1,2.6,1.4L289.4,397.8z M283.2,405.2v-3.9h8.7v-1.1h-8.7v-1.4h10.5v3.9h-8.7v1.1h9
								v1.5H283.2z M283.3,390.9v-1.4h4.8v1.4H283.3z M293.8,394.6v3.6h-1.7v-8.7h1.7v3.5h2.2v1.6H293.8z"/>
							<path class="st5" d="M304.2,402.3c-0.7-0.3-1.4-0.9-2.2-1.9c-0.8-1-1.4-1.9-1.8-2.9c-0.2,0.9-0.8,1.8-1.7,2.9
								c-0.9,1-1.7,1.8-2.4,2.2l-1.4-1.1c1.6-0.9,2.8-2.1,3.5-3.6c0.7-1.4,1.1-3.1,1.1-5.1v-2.5h1.8v2.5c0,2,0.4,3.6,1.1,4.9
								c0.7,1.3,1.8,2.4,3.2,3.3L304.2,402.3z M307.1,405.4v-9.1h-3.4v-1.6h3.4v-5.3h1.7v16H307.1z"/>
						</g>
					</g>
				</g>
				<g>
					<path class="st5" d="M49.1,28.9c0,1.9-1.6,3.5-3.5,3.5c-1.9,0-3.5-1.6-3.5-3.5s1.6-3.5,3.5-3.5C47.5,25.4,49.1,27,49.1,28.9z"
						/>
					<path class="st5" d="M65.9,29.5c0.4,0.6,0.5,1.3,0.4,2.1c-0.1,1-0.6,1.9-1.4,2.6c-0.8,0.7-1.9,1.1-3.4,1.1
						c-1.6,0-2.9-0.5-3.6-1.5c-0.8-1-1.2-2.1-1.2-3.2h1.7c0,1.1,0.4,1.9,1,2.4c0.6,0.6,1.3,0.8,2.3,0.8c0.9,0,1.6-0.2,2.1-0.6
						c0.5-0.4,0.8-1,0.9-1.6c0.1-0.5,0-0.9-0.2-1.2c-0.2-0.3-0.6-0.6-1.1-0.9c-0.6-0.3-1.1-0.4-1.8-0.5c-0.6,0-1.3-0.2-1.9-0.5
						c-0.8-0.4-1.4-0.8-1.8-1.3c-0.4-0.5-0.6-1.2-0.6-2.1c0-0.9,0.4-1.7,1.1-2.5c0.7-0.8,1.8-1.2,3.2-1.2c1.7,0,2.9,0.5,3.5,1.5
						c0.6,1,0.9,1.9,0.9,2.6l-1.7,0c0-0.7-0.2-1.3-0.7-1.9c-0.5-0.5-1.2-0.8-2.1-0.8c-0.9,0-1.6,0.2-2,0.7c-0.4,0.5-0.6,1-0.6,1.5
						c0,0.6,0.2,1,0.5,1.3c0.3,0.3,0.7,0.5,1,0.6c0.5,0.2,1,0.3,1.7,0.4c0.7,0.1,1.4,0.3,2.1,0.6C65,28.4,65.5,28.9,65.9,29.5z"/>
					<path class="st5" d="M74.8,34.8l-5-6c-0.4,0.4-0.8,0.7-1.1,1c-0.3,0.3-0.5,0.5-0.7,0.6v4.3h-1.6V21.9H68v6.4
						c0.8-0.8,1.8-1.7,2.9-2.9c1.1-1.2,2.1-2.3,3-3.5h2C75,23,74.1,24,73.3,25c-0.8,1-1.6,1.8-2.3,2.6l5.8,7.2H74.8z"/>
					<path class="st5" d="M81.7,28.3c-0.6,0.1-1.2,0.1-1.8,0.1c-0.9,0-1.7,0.1-2.4,0.1c-0.7,0-1,0-1.1,0v-7.1H82v1.4h-3.8v1.4h3.7
						v1.4h-3.7v1.5l1.6,0c0.5,0,1.1,0,1.8-0.1c0.7-0.1,1.2-0.1,1.6-0.2v1.3C82.8,28.2,82.3,28.2,81.7,28.3z M78.2,36.1v-3.9h9.2V31
						h-9.2v-1.4h11.2v3.9h-9.3v1.2h9.6v1.4H78.2z M84.5,28.9v-3.7h-1.9v-1.5h1.9v-3.1h1.7v8.3H84.5z M87.8,28.9v-8.6h1.7v8.6H87.8z"
						/>
					<path class="st5" d="M96.5,32.8c-0.7,0.1-1.5,0.1-2.3,0.1L91,33v-6.3h4v-3.1h-4v-1.5h5.7v6.1h-4v3.2l2,0c0.6,0,1.2,0,1.8-0.1
						c0.7,0,1.2-0.1,1.5-0.1v1.5C97.8,32.7,97.2,32.7,96.5,32.8z M99.2,35.6V28h-1.8v-1.7h1.8v-5.6h1.7v14.9H99.2z M102.4,36.3v-16
						h1.7v16H102.4z"/>
					<path class="st5" d="M104.6,29.4v-1.5h5.7V26h1.8v1.9h7.7v1.5H104.6z M117.9,23.5c-0.1,1.2-0.4,2.3-0.7,3.3h-1.8
						c0,0,0.1-0.2,0.1-0.6c0.1-0.4,0.2-0.8,0.2-1.2c-0.4,0.1-1.1,0.1-2,0.2c-0.9,0.1-1.8,0.1-2.7,0.1l-4.9,0V24c0.1,0,1,0,2.6,0
						c1.6,0,2.8,0,3.6-0.1c0.7,0,1.3-0.1,2-0.1c0.6,0,1.2-0.1,1.7-0.2c0-0.3,0.1-0.5,0.1-0.6c0-0.1,0-0.3,0-0.5h-9.7V21h11.6
						C118.1,21.5,118,22.3,117.9,23.5z M106.5,36.1v-5.4h11.2v5.4H106.5z M116,32.3h-7.7v2.3h7.7V32.3z"/>
					<g>
						<path class="st5" d="M89.8,47.5v-7.3h1.7v2.4h4.1v-2.4h1.7v7.3H89.8z M91.5,55.4v-4h9.1v-1.2h-9.1v-1.5h10.9v4h-9.1v1.2h9.4
							v1.4H91.5z M95.7,44.1h-4.1v1.9h4.1V44.1z M100.8,48v-8.4h1.7V48H100.8z"/>
						<path class="st5" d="M111.8,47.5c-1,0.1-2,0.1-3,0.2l-4.3,0v-7h7.8v1.5h-6.1v4l3.2,0c0.7,0,1.5-0.1,2.5-0.2
							c1-0.1,1.7-0.2,2.2-0.2v1.5C113.5,47.3,112.8,47.4,111.8,47.5z M115.7,54.9c-1,0.6-2.5,0.9-4.3,0.9c-1.9,0-3.3-0.3-4.3-0.9
							c-1-0.6-1.5-1.4-1.5-2.4c0-1,0.5-1.8,1.5-2.4c1-0.6,2.5-0.9,4.3-0.9c1.9,0,3.3,0.3,4.3,0.9c1,0.6,1.5,1.4,1.5,2.4
							C117.2,53.5,116.7,54.3,115.7,54.9z M114.2,51.2c-0.8-0.3-1.7-0.5-2.9-0.5c-1.2,0-2.1,0.2-2.9,0.5c-0.8,0.3-1.1,0.8-1.1,1.4
							c0,0.6,0.4,1,1.1,1.3c0.8,0.3,1.7,0.5,2.9,0.5c1.2,0,2.1-0.2,2.9-0.5c0.8-0.3,1.1-0.8,1.1-1.3C115.4,51.9,115,51.5,114.2,51.2
							z M115.2,49v-9.4h1.7V49H115.2z"/>
					</g>
				</g>
				<g>
					<defs>
						<polygon id="SVGID_10_" points="373.1,-14 392.1,226.9 694.3,223.3 694.3,-11.6 						"/>
					</defs>
					<clipPath id="SVGID_2_">
						<use xlink:href="#SVGID_10_"  style="overflow:visible;"/>
					</clipPath>
				</g>
				<g>
					<defs>
						<rect id="SVGID_12_" x="-51" y="-14" width="745.3" height="500"/>
					</defs>
					<clipPath id="SVGID_3_">
						<use xlink:href="#SVGID_12_"  style="overflow:visible;"/>
					</clipPath>
				</g>
				<polygon class="st3" points="-49,245.7 -50,242.8 120.2,223.5 694.9,223.5 694.9,226.5 120.5,226.5 				"/>
				<path class="st8" d="M568.3,73.1c0,1.9-1.6,3.5-3.5,3.5c-1.9,0-3.5-1.6-3.5-3.5c0-1.9,1.6-3.5,3.5-3.5
					C566.7,69.6,568.3,71.2,568.3,73.1z"/>
				<g>
					<g>
						<g>
							<path class="st8" d="M560.4,103.9v5.2H558v-5.2h-6.6v-2.2H567v2.2H560.4z M553.3,100.4v-7.6h2.4v1.8h7.1v-1.8h2.4v7.6H553.3z
								 M562.7,96.7h-7.1v1.6h7.1V96.7z"/>
							<path class="st8" d="M576,102.1c-0.7-0.3-1.3-0.7-2-1.2c-0.7-0.5-1.3-1.2-1.8-1.9c-0.4,0.7-0.9,1.4-1.6,2
								c-0.7,0.6-1.4,1.1-2.1,1.5l-1.7-1.7c1-0.5,2-1.2,2.8-2.2c0.8-1,1.3-2.2,1.3-3.5v-2.2h2.5v2.2c0,1.3,0.4,2.4,1.3,3.4
								c0.9,0.9,1.8,1.5,2.7,1.8L576,102.1z M569.8,108.7v-5.2h2.4v3h9.4v2.2H569.8z M581.1,99.5v4.9h-2.4V92.5h2.4v4.8h2.1v2.2
								H581.1z"/>
							<path class="st8" d="M545.2,128.4c-0.7-0.4-1.4-0.9-2.1-1.7c-0.8-0.7-1.4-1.5-1.8-2.4c-0.4,0.9-0.9,1.7-1.7,2.5
								c-0.8,0.8-1.5,1.4-2.1,1.7l-1.8-1.6c0.9-0.5,1.8-1.4,2.8-2.5c1-1.2,1.4-2.8,1.4-4.8V116h2.5v3.7c0,2,0.5,3.6,1.5,4.7
								c1,1.1,1.9,1.9,2.7,2.3L545.2,128.4z M548,131.6v-16.5h2.4v16.5H548z"/>
							<path class="st8" d="M552.4,124.2v-8.3h8.1v8.3H552.4z M554.1,131.2v-5.5h2.5v3.4h9.5v2.2H554.1z M558.2,118h-3.4v4.1h3.4
								V118z M563.4,126.9v-11.8h2.4v11.8H563.4z"/>
							<path class="st8" d="M566.8,124.1v-2.2h5.6v-2.6h2.5v2.6h7.6v2.2H566.8z M579.4,130.8c-1.1,0.6-2.7,1-4.7,1
								c-2.1,0-3.6-0.3-4.7-1c-1.1-0.7-1.6-1.5-1.6-2.5c0-1,0.5-1.8,1.6-2.4c1.1-0.6,2.6-0.9,4.7-0.9c2.1,0,3.6,0.3,4.7,0.9
								c1.1,0.6,1.6,1.4,1.6,2.4C581,129.3,580.5,130.2,579.4,130.8z M580.6,119.1c-0.3,1.3-0.4,1.9-0.4,2h-2.4
								c0-0.1,0.1-0.4,0.2-1.2c0.1-0.7,0.3-1.5,0.3-2.2h-9.8v-2.2H581C581,116.7,580.9,117.8,580.6,119.1z M577.4,127.3
								c-0.6-0.2-1.5-0.4-2.7-0.4c-1.1,0-2,0.1-2.7,0.4c-0.6,0.2-1,0.6-1,1.1c0,0.5,0.3,0.9,1,1.1c0.6,0.2,1.5,0.4,2.7,0.4
								c1.1,0,2-0.1,2.7-0.4c0.6-0.2,1-0.6,1-1.1C578.3,127.9,578,127.5,577.4,127.3z"/>
							<path class="st8" d="M591.3,123.6c-1.2,0.1-2.1,0.1-2.6,0.1v2.4h-2.4v-2.4h-3.4v-2.1h5.3c0.8,0,1.9-0.1,3.2-0.2
								c1.4-0.1,2.3-0.2,2.7-0.3v2.1C593.4,123.4,592.5,123.5,591.3,123.6z M591.5,115.7c0.7,0.6,1,1.4,1,2.2c0,0.8-0.4,1.6-1.1,2.2
								c-0.7,0.6-1.8,0.9-3.1,0.9c-1.4,0-2.4-0.3-3.1-0.9c-0.7-0.6-1.1-1.4-1.1-2.2c0-0.8,0.4-1.5,1.1-2.2c0.7-0.6,1.8-0.9,3.1-0.9
								C589.7,114.7,590.8,115,591.5,115.7z M585.4,131.2v-4.4h2.4v2.3h9.6v2.2H585.4z M589.8,117c-0.3-0.3-0.8-0.5-1.5-0.5
								c-0.7,0-1.2,0.1-1.5,0.5c-0.3,0.3-0.4,0.6-0.4,0.8c0,0.2,0.2,0.5,0.5,0.8c0.3,0.3,0.8,0.4,1.4,0.4c0.7,0,1.2-0.1,1.5-0.4
								c0.3-0.3,0.4-0.6,0.4-0.8C590.2,117.6,590.1,117.3,589.8,117z M594.7,127.5v-1.2h-3.5v-2h3.5v-9.2h2.4v12.4H594.7z"/>
						</g>
					</g>
				</g>
				<rect x="-51" y="-14" class="st11" width="745.3" height="500"/>
				<g>
					<path class="st5" d="M114.3,210.4c0,1.9-1.6,3.5-3.5,3.5c-1.9,0-3.5-1.6-3.5-3.5c0-1.9,1.6-3.5,3.5-3.5
						C112.7,206.8,114.3,208.4,114.3,210.4z"/>
					<g>
						<g>
							<g>
								<g>
									<path class="st5" d="M53.9,179.6c-0.7-0.3-1.4-0.9-2.2-1.9c-0.8-1-1.4-1.9-1.8-2.9c-0.2,0.9-0.8,1.8-1.7,2.9
										c-0.9,1-1.7,1.8-2.4,2.2l-1.4-1.1c1.6-0.9,2.8-2.1,3.5-3.6c0.7-1.4,1.1-3.1,1.1-5.1v-2.5h1.8v2.5c0,2,0.4,3.6,1.1,4.9
										c0.7,1.3,1.8,2.4,3.2,3.3L53.9,179.6z M56.8,182.7v-9.1h-3.4V172h3.4v-5.3h1.7v16H56.8z"/>
									<path class="st5" d="M71.1,169.4v-2.6h1.7v11.6h-1.7v-4.5h-3.5v1.7h-7.4v-7.7h7.4v1.6H71.1z M65.9,169.3h-3.9v4.7h3.9
										V169.3z M62,182.3v-5.1h1.7v3.6h9.5v1.5H62z M71.1,172.3v-1.5h-3.5v1.5H71.1z"/>
									<path class="st5" d="M76.2,174.1c-0.5,0.6-1,1-1.5,1.4l-1.1-1.2c1.2-0.9,2-1.9,2.3-2.8c0.3-0.9,0.4-1.7,0.4-2.4v-2h1.7v2
										c0,0.7,0.1,1.4,0.4,2.3c0.2,0.8,0.6,1.5,1.2,2.1c0.6-0.6,1-1.3,1.2-2.1c0.2-0.8,0.3-1.5,0.3-2.2v-2h1.7v2
										c0,0.7,0.1,1.5,0.4,2.4c0.3,0.9,0.9,1.7,1.8,2.5l-0.9,1.3c-0.4-0.3-0.9-0.7-1.3-1.2c-0.4-0.5-0.7-1-0.9-1.6
										c-0.2,0.6-0.5,1.2-1,1.7c-0.5,0.6-1,1-1.4,1.3c-0.5-0.3-1-0.8-1.4-1.4c-0.5-0.6-0.8-1.2-1-1.7
										C77,172.9,76.7,173.5,76.2,174.1z M86.2,182c-1,0.6-2.5,0.9-4.3,0.9c-1.9,0-3.3-0.3-4.3-0.9c-1-0.6-1.5-1.4-1.5-2.3
										c0-0.9,0.5-1.7,1.5-2.3c1-0.6,2.5-0.9,4.3-0.9c1.9,0,3.3,0.3,4.3,0.9c1,0.6,1.5,1.4,1.5,2.3
										C87.7,180.7,87.2,181.4,86.2,182z M84.7,178.4c-0.7-0.3-1.7-0.5-2.8-0.5c-1.2,0-2.1,0.2-2.9,0.5c-0.8,0.3-1.1,0.8-1.1,1.3
										c0,0.5,0.4,1,1.1,1.3c0.8,0.3,1.7,0.5,2.9,0.5c1.1,0,2.1-0.2,2.8-0.5c0.7-0.3,1.1-0.7,1.1-1.3
										C85.8,179.2,85.4,178.8,84.7,178.4z M87.2,172.1v4.1h-1.7v-9.5h1.7v3.8h2.1v1.6H87.2z"/>
									<path class="st5" d="M88.2,175.8v-1.5h4.1v-2.1c-0.8-0.3-1.4-0.6-1.7-1.1c-0.4-0.4-0.6-0.9-0.6-1.5c0-0.9,0.5-1.6,1.5-2.2
										c1-0.6,2.5-0.9,4.4-0.9c1.9,0,3.4,0.3,4.4,0.9c1,0.6,1.5,1.3,1.5,2.2c0,0.5-0.2,1-0.6,1.5c-0.4,0.4-1,0.8-1.7,1.1v2.1h4
										v1.5H88.2z M100.2,182.1c-1,0.6-2.5,0.9-4.5,0.9c-1.9,0-3.4-0.3-4.5-0.9c-1.1-0.6-1.6-1.3-1.6-2.2c0-0.9,0.5-1.6,1.6-2.2
										c1.1-0.6,2.5-0.8,4.5-0.8c1.9,0,3.4,0.3,4.5,0.8c1,0.6,1.6,1.3,1.6,2.2C101.8,180.8,101.3,181.6,100.2,182.1z M92.8,178.8
										c-0.8,0.3-1.1,0.7-1.1,1.2c0,0.5,0.4,0.9,1.1,1.2c0.8,0.3,1.7,0.4,3,0.4c1.2,0,2.2-0.1,2.9-0.4c0.8-0.3,1.1-0.7,1.1-1.2
										c0-0.5-0.4-0.9-1.1-1.2c-0.8-0.3-1.7-0.4-2.9-0.4C94.5,178.3,93.5,178.5,92.8,178.8z M98.7,168.5c-0.7-0.4-1.7-0.5-3-0.5
										c-1.3,0-2.2,0.2-3,0.5c-0.7,0.3-1.1,0.7-1.1,1.2c0,0.5,0.4,0.9,1.1,1.2c0.7,0.3,1.7,0.5,2.9,0.5c1.2,0,2.2-0.2,2.9-0.5
										c0.8-0.3,1.1-0.7,1.1-1.2C99.8,169.2,99.4,168.8,98.7,168.5z M97.6,172.6c-0.3,0.1-0.6,0.1-0.9,0.1c-0.3,0-0.6,0-1,0
										c-0.3,0-0.6,0-0.9,0c-0.3,0-0.6-0.1-0.9-0.1v1.7h3.6V172.6z"/>
									<path class="st5" d="M15.3,202.1v-1.5h15.2v1.5H15.3z M20.7,196.4c-1.1,0.9-2.3,1.6-3.4,1.9l-1.2-1.3
										c2.6-0.9,4.2-2.1,4.9-3.4c0.7-1.3,1-2.4,1-3.1v-1.1h1.8v1.1c0,0.8,0.4,1.8,1.1,3.1c0.7,1.3,2.3,2.5,4.8,3.4l-1.2,1.3
										c-1.2-0.4-2.3-1-3.4-2c-1.1-1-1.8-1.9-2.2-2.8C22.6,194.5,21.9,195.5,20.7,196.4z"/>
									<path class="st5" d="M39.2,196.6c-1.2,0.1-2.3,0.2-3.1,0.2v2.8h-1.7v-2.7h-3.8v-1.6h4.7c1.1,0,2.3-0.1,3.8-0.2
										c1.5-0.1,2.4-0.2,2.8-0.3v1.6C41.3,196.4,40.4,196.5,39.2,196.6z M38.8,193.2c-0.7,0.6-1.7,0.8-3,0.8c-1.3,0-2.3-0.3-3-0.8
										c-0.7-0.6-1-1.2-1-2c0-0.8,0.3-1.4,1-2c0.7-0.6,1.7-0.8,3-0.8c1.3,0,2.4,0.3,3,0.8c0.7,0.6,1,1.2,1,2
										C39.8,192,39.5,192.7,38.8,193.2z M43.6,204.5c-0.9-0.2-1.8-0.6-2.8-1.3c-1-0.7-1.7-1.4-2.3-2.3c-0.4,0.8-1.1,1.5-2.1,2.2
										c-1,0.6-2,1.1-3,1.4l-1.1-1.4c2-0.5,3.4-1.2,4.1-2.2c0.7-1,1-1.7,1-2.1v-0.5h2v0.5c0,0.4,0.3,1.1,1,2
										c0.7,1,2.1,1.7,4.1,2.3L43.6,204.5z M37.7,190.2c-0.4-0.3-1-0.5-1.9-0.5c-0.9,0-1.5,0.2-1.8,0.5c-0.4,0.3-0.6,0.7-0.6,1
										c0,0.3,0.2,0.6,0.6,0.9c0.4,0.3,1,0.5,1.8,0.5c0.9,0,1.5-0.2,1.8-0.5c0.4-0.3,0.6-0.6,0.6-0.9
										C38.2,190.9,38,190.6,37.7,190.2z M42.4,199.8v-11.3h1.7v11.3H42.4z"/>
									<path class="st5" d="M52.4,196.8c-1,0.1-2,0.1-3,0.2l-3.9,0v-7.4h7.7v1.5h-5.9v4.4l2.8,0c0.7,0,1.5-0.1,2.5-0.2
										c1-0.1,1.7-0.2,2.2-0.2v1.5C54.2,196.6,53.4,196.7,52.4,196.8z M57.4,204.5c-0.9-0.1-1.8-0.6-2.9-1.4
										c-1.1-0.8-1.8-1.6-2.2-2.2c-0.3,0.8-1.1,1.6-2.2,2.3c-1.1,0.7-2.1,1.2-2.9,1.4l-1.1-1.3c2.2-0.7,3.6-1.5,4.2-2.5
										c0.6-1,1-1.7,1-2.1v-0.5h2v0.5c0,0.5,0.3,1.2,1,2.2c0.7,1,2.1,1.8,4.2,2.4L57.4,204.5z M57.6,194.6v4.8h-1.7v-10.8h1.7v4.5
										h2.2v1.5H57.6z"/>
									<path class="st5" d="M59,198.9v-1.5h6.6v-1c-1.3-0.1-2.3-0.3-3.2-0.6c-0.8-0.3-1.2-0.8-1.2-1.4c0-0.7,0.5-1.2,1.6-1.5
										c1-0.3,2.3-0.5,3.8-0.5c1.5,0,2.8,0.2,3.9,0.5c1,0.3,1.6,0.8,1.6,1.5c0,0.6-0.4,1.1-1.3,1.4c-0.9,0.3-1.9,0.5-3.2,0.6v1
										h6.7v1.5H59z M60.2,191.8v-1.3H73v1.3H60.2z M72.2,204.3H61v-4.4h11.2V204.3z M70.4,201.1h-7.7v1.9h7.7V201.1z M68.9,193.9
										c-0.7-0.1-1.5-0.2-2.3-0.2c-0.9,0-1.6,0.1-2.3,0.2c-0.7,0.1-1,0.3-1,0.6c0,0.3,0.3,0.5,1,0.6c0.7,0.1,1.5,0.2,2.3,0.2
										c0.9,0,1.6-0.1,2.3-0.2c0.7-0.1,1-0.3,1-0.6C70,194.3,69.6,194,68.9,193.9z M63.4,189.7v-1.3h6.4v1.3H63.4z"/>
									<path class="st5" d="M82.1,200.7c-0.7,0-1.4,0.1-2.1,0.1l-6.3,0.1v-1.6h2.1l-0.2-6.8h1.7l0.2,6.8c0.5,0,1,0,1.3,0
										c0.4,0,0.7,0,1.1,0l0.2-6.8h1.7l-0.2,6.7c0.3,0,0.7-0.1,1.2-0.1c0.5,0,0.9-0.1,1.3-0.1v1.6
										C83.5,200.6,82.8,200.7,82.1,200.7z M74.2,191.8v-1.5h9.2v1.5H74.2z M86.7,188.5v6.2H89v1.6h-2.3v8.2H85v-16H86.7z"/>
									<path class="st5" d="M88.2,202.1v-1.5h10.2c0.1-0.4,0.2-1,0.3-1.8c0.1-0.7,0.3-1.5,0.4-2.4c-0.5,0.1-1,0.1-1.6,0.2
										c-0.6,0-1.2,0.1-1.8,0.1c-0.9,0-2.2,0.1-3.7,0.1c-1.5,0-2.3,0-2.4,0v-1.5c0.1,0,1,0,2.6,0c1.6,0,2.8,0,3.6-0.1
										c0.6,0,1.3-0.1,1.9-0.1c0.6,0,1.2-0.1,1.7-0.2c0.1-0.7,0.1-1.3,0.2-1.7c0-0.4,0.1-0.8,0.1-1.2H90v-1.5h11.5
										c0,0.8-0.1,2.3-0.4,4.7c-0.3,2.4-0.6,4.2-0.9,5.5h3.2v1.5H88.2z"/>
								</g>
							</g>
						</g>
					</g>
				</g>
				<g>
					<line class="st12" x1="694.3" y1="354.8" x2="-51" y2="354.8"/>
					<rect x="-51" y="351.7" class="st13" width="745.3" height="6.1"/>
				</g>
				<g>
					<path class="st14" d="M607.5,372.3H448.7c-3,0-5.5-2.5-5.5-5.5v-24c0-3,2.5-5.5,5.5-5.5h158.8c3,0,5.5,2.5,5.5,5.5v24
						C613,369.8,610.6,372.3,607.5,372.3z"/>
				</g>
				<g>
					<g>
						<path class="st8" d="M470.4,355.6v-2.4h7.5v-1.6h-5.3v-6.4h13.6v2.4h-10.9v1.5h11.1v2.5h-5.6v1.6h7.6v2.4H470.4z M484.8,362.8
							c-1.2,0.7-3,1.1-5.4,1.1c-2.4,0-4.2-0.4-5.4-1.1c-1.2-0.7-1.9-1.6-1.9-2.7c0-1.1,0.6-2,1.9-2.7c1.2-0.7,3.1-1,5.4-1
							c2.4,0,4.2,0.3,5.4,1c1.2,0.7,1.9,1.6,1.9,2.7C486.7,361.2,486.1,362.1,484.8,362.8z M482.4,359.1c-0.7-0.3-1.7-0.4-3-0.4
							c-1.3,0-2.3,0.1-3,0.4c-0.7,0.3-1.1,0.6-1.1,1.1c0,0.4,0.4,0.8,1.1,1.1c0.7,0.3,1.7,0.4,3,0.4c1.3,0,2.3-0.1,3-0.4
							c0.7-0.3,1.1-0.6,1.1-1.1C483.5,359.7,483.1,359.4,482.4,359.1z"/>
						<path class="st8" d="M488.4,351.7v-2.4h9.4v2.4H488.4z M496.3,359.8c-0.8,0.7-1.9,1.1-3.1,1.1c-1.1,0-2.1-0.4-3-1.1
							c-0.9-0.7-1.3-1.7-1.3-3c0-1.2,0.4-2.2,1.3-2.9c0.9-0.7,1.9-1.1,3-1.1c1.2,0,2.3,0.4,3.1,1.1c0.8,0.7,1.3,1.7,1.3,2.9
							C497.5,358,497.1,359,496.3,359.8z M490.5,348.2v-2.3h5.2v2.3H490.5z M491.9,358.1c0.4,0.3,0.8,0.4,1.2,0.4
							c0.5,0,0.9-0.1,1.3-0.4c0.3-0.3,0.5-0.7,0.5-1.3c0-0.6-0.2-1-0.5-1.3c-0.3-0.3-0.8-0.5-1.3-0.5c-0.5,0-0.9,0.1-1.3,0.5
							c-0.3,0.3-0.5,0.7-0.5,1.3C491.4,357.4,491.5,357.8,491.9,358.1z M502.8,363.6v-8.9h-1.5v8h-2.6v-17.7h2.6v6.6h1.5v-7h2.6v19
							H502.8z"/>
						<path class="st8" d="M516.6,355.8c-0.8-0.3-1.5-0.8-2.4-1.5c-0.8-0.7-1.5-1.4-2-2.2c-0.4,0.8-1,1.6-1.8,2.4
							c-0.8,0.8-1.6,1.4-2.4,1.9l-2-2c1.2-0.5,2.3-1.4,3.3-2.6c1-1.2,1.5-2.6,1.5-4.2v-2.5h2.9v2.5c0,1.5,0.5,2.8,1.5,3.9
							c1,1.1,2,1.8,3.1,2.2L516.6,355.8z M509.5,363.2v-5.9h2.8v3.5h11v2.5H509.5z M520.1,358.4v-7.5h-3.5v-2.5h3.5v-3.7h2.7v13.7
							H520.1z"/>
						<path class="st8" d="M540.3,357.7v5.9h-2.8v-5.9h-7.6v-2.5h18v2.5H540.3z M532.2,353.7v-8.7h2.7v2h8.1v-2h2.7v8.7H532.2z
							 M543,349.4h-8.1v1.8h8.1V349.4z"/>
						<path class="st8" d="M558.2,355.8c-0.5-0.2-1.2-0.5-2.1-1.1c-0.9-0.6-1.6-1.2-2-2c-0.3,0.7-0.9,1.3-1.7,2
							c-0.8,0.7-1.7,1.1-2.6,1.5l-1.7-2.2c1-0.3,2-0.8,3-1.7c1-0.9,1.6-2,1.6-3.4v-0.6h-3.4v-2.5h9.6v2.5h-3.4v0.6
							c0,1.3,0.4,2.3,1.3,3.1c0.9,0.7,1.8,1.3,2.9,1.7L558.2,355.8z M551.5,363.2V357h2.7v3.7h11v2.5H551.5z M562.1,358.4v-6.8H559
							V349h3.1v-4.3h2.7v13.7H562.1z"/>
						<path class="st8" d="M579.5,355.8v-2.6h-3.9c-0.5,0.6-1,1-1.8,1.3c-0.7,0.3-1.5,0.5-2.4,0.5c-1.5,0-2.8-0.5-3.8-1.5
							c-1-1-1.5-2.2-1.5-3.5c0-1.4,0.5-2.5,1.5-3.5c1-1,2.2-1.5,3.8-1.5c0.8,0,1.6,0.2,2.3,0.5c0.7,0.3,1.3,0.7,1.7,1.3h4v-2.1h2.7
							v11.1H579.5z M579.4,363.6v-4.5h-10.9v-2.5h13.7v7H579.4z M573.3,348.3c-0.4-0.5-1-0.8-1.8-0.8c-0.8,0-1.4,0.3-1.8,0.8
							c-0.4,0.5-0.6,1.1-0.6,1.8c0,0.7,0.2,1.2,0.6,1.8c0.4,0.5,1,0.8,1.8,0.8c0.8,0,1.4-0.3,1.8-0.8c0.4-0.5,0.6-1.1,0.6-1.8
							C573.9,349.4,573.7,348.8,573.3,348.3z M579.5,349.3h-2.8c0,0.1,0,0.3,0.1,0.4c0,0.1,0,0.3,0,0.4c0,0.1,0,0.2,0,0.3
							c0,0.1,0,0.2,0,0.3h2.8V349.3z"/>
					</g>
				</g>
			</g>
		</g>
	</g>
	<g>
		<path class="st15" d="M303.4,14.2h82.1c5.7,0,10.3,4.6,10.3,10.2v52.8c0,5.6-4.6,10.2-10.3,10.2h-72.2l-7.8,14.5l1.4-14.5h-3.4
			c-5.7,0-10.3-4.6-10.3-10.2V24.4C293.1,18.8,297.7,14.2,303.4,14.2z"/>
		<g>
			<g>
				<defs>
					<filter id="Adobe_OpacityMaskFilter" filterUnits="userSpaceOnUse" x="356.7" y="23.8" width="30" height="15.5">
						<feFlood  style="flood-color:white;flood-opacity:1" result="back"/>
						<feBlend  in="SourceGraphic" in2="back" mode="normal"/>
					</filter>
				</defs>
				<mask maskUnits="userSpaceOnUse" x="356.7" y="23.8" width="30" height="15.5" id="SVGID_4_">
					<g class="st16">
						<rect x="352.2" y="20.8" class="st17" width="15.2" height="10.7"/>
						<rect x="374.9" y="31.7" class="st17" width="18.6" height="12.5"/>
					</g>
				</mask>
				<rect x="356.7" y="23.8" class="st18" width="30" height="15.5"/>
				<path class="st8" d="M380.5,23.8h-17.6c-3.4,0-6.2,2.8-6.2,6.2v3.1c0,3.4,2.8,6.2,6.2,6.2h17.6c3.4,0,6.2-2.8,6.2-6.2v-3.1
					C386.7,26.5,383.9,23.8,380.5,23.8z"/>
			</g>
			<g>
				<path class="st8" d="M300.9,50.9c1.1-0.5,2-0.9,2.7-1.2c0.7-0.3,1.2-0.6,1.6-0.9c0.4-0.3,0.6-0.6,0.7-0.9
					c0.1-0.3,0.2-0.7,0.2-1.1v-0.7h-4.5v-1.7h6.5v2.6c0,0.4,0,0.8-0.1,1.1c-0.1,0.3-0.2,0.7-0.4,1c-0.2,0.3-0.4,0.6-0.7,0.9
					c-0.3,0.3-0.7,0.5-1.2,0.8c-0.5,0.3-1,0.6-1.7,0.9s-1.4,0.6-2.3,1L300.9,50.9z M308.5,58.7c-0.7,0-1.3-0.1-1.8-0.2
					c-0.6-0.1-1.1-0.3-1.5-0.6c-0.4-0.2-0.7-0.6-1-0.9c-0.2-0.4-0.4-0.8-0.4-1.2v-0.7c0-0.4,0.1-0.8,0.4-1.2c0.2-0.4,0.6-0.7,1-0.9
					c0.4-0.2,0.9-0.4,1.5-0.6c0.6-0.1,1.2-0.2,1.8-0.2c0.7,0,1.3,0.1,1.8,0.2c0.6,0.1,1.1,0.3,1.5,0.6c0.4,0.2,0.7,0.6,1,0.9
					c0.2,0.4,0.4,0.8,0.4,1.2v0.7c0,0.4-0.1,0.8-0.4,1.2c-0.2,0.4-0.6,0.7-1,0.9c-0.4,0.2-0.9,0.4-1.5,0.6
					C309.8,58.6,309.1,58.7,308.5,58.7z M308.5,53.9c-0.4,0-0.7,0-1,0.1c-0.3,0.1-0.6,0.2-0.8,0.3c-0.2,0.1-0.4,0.3-0.6,0.4
					c-0.1,0.2-0.2,0.3-0.2,0.5v0.4c0,0.2,0.1,0.4,0.2,0.5c0.1,0.2,0.3,0.3,0.6,0.4c0.2,0.1,0.5,0.2,0.8,0.3c0.3,0.1,0.7,0.1,1,0.1
					c0.4,0,0.7,0,1-0.1c0.3-0.1,0.6-0.2,0.8-0.3c0.2-0.1,0.4-0.3,0.6-0.4c0.1-0.2,0.2-0.3,0.2-0.5v-0.4c0-0.2-0.1-0.4-0.2-0.5
					c-0.1-0.2-0.3-0.3-0.6-0.4c-0.2-0.1-0.5-0.2-0.8-0.3C309.2,54,308.8,53.9,308.5,53.9z M311.1,45.5v-2.1h2v8.7h-2v-1.9h-2.5v-1.7
					h2.5v-1.4h-2.2v-1.7H311.1z"/>
				<path class="st8" d="M315.9,44.3h2v4.8c1.1,0,2.1,0,3.1-0.1c1-0.1,1.9-0.1,2.8-0.3l0.2,1.7c-0.4,0.1-0.9,0.1-1.4,0.2
					c-0.5,0-1.1,0.1-1.7,0.1c-0.6,0-1.4,0.1-2.2,0.1c-0.8,0-1.7,0-2.8,0V44.3z M317.9,52.4h9.3v5.9h-9.3V52.4z M319.9,56.6h5.3V54
					h-5.3V56.6z M327.1,46.6h2v1.7h-2v3.4h-2v-8.2h2V46.6z"/>
				<path class="st8" d="M334.1,54.8c-0.7,0-1.2-0.1-1.7-0.3c-0.5-0.2-0.9-0.5-1.2-0.9c-0.3-0.4-0.5-0.8-0.7-1.4
					c-0.1-0.5-0.2-1.1-0.2-1.7v-1.8c0-0.6,0.1-1.2,0.2-1.7c0.1-0.5,0.4-1,0.7-1.4c0.3-0.4,0.7-0.7,1.2-0.9c0.5-0.2,1.1-0.3,1.7-0.3
					s1.3,0.1,1.7,0.3c0.5,0.2,0.9,0.5,1.2,0.9c0.3,0.4,0.5,0.8,0.7,1.4c0.1,0.5,0.2,1.1,0.2,1.7v1.8c0,0.6-0.1,1.2-0.2,1.7
					c-0.1,0.5-0.4,1-0.7,1.4c-0.3,0.4-0.7,0.7-1.2,0.9C335.4,54.7,334.8,54.8,334.1,54.8z M334.1,46.2c-0.7,0-1.2,0.2-1.5,0.7
					c-0.3,0.5-0.4,1.1-0.4,2.1v1.3c0,0.9,0.1,1.6,0.4,2.1c0.3,0.5,0.8,0.7,1.5,0.7s1.2-0.2,1.5-0.7c0.3-0.5,0.4-1.1,0.4-2.1V49
					c0-0.9-0.1-1.6-0.4-2.1C335.3,46.5,334.8,46.2,334.1,46.2z M341.7,48.7h2.1v1.7h-2.1v7.8h-2V43.5h2V48.7z"/>
				<path class="st8" d="M347.5,52.6h1.1c0.8,0,1.6,0,2.5-0.1c0.9-0.1,1.7-0.1,2.5-0.2l0.2,1.7c-0.4,0.1-0.8,0.1-1.2,0.2
					c-0.4,0-0.9,0.1-1.4,0.1c-0.5,0-1,0-1.5,0.1c-0.5,0-1,0-1.5,0h-2.7v-9.7h2.1V52.6z M351,47.7h4v-4.2h2v14.8h-2v-8.8h-4V47.7z"/>
				<path class="st8" d="M372.7,54.7v1.7h-13.7v-1.7H372.7z M365.9,49.4c-0.1,0.2-0.3,0.4-0.5,0.6c-0.3,0.2-0.6,0.4-1,0.7
					c-0.4,0.3-0.9,0.6-1.5,0.9c-0.6,0.3-1.3,0.7-2,1.2l-1-1.6c0.6-0.3,1.2-0.7,1.8-1c0.6-0.4,1.1-0.7,1.6-1c0.3-0.2,0.6-0.4,0.8-0.6
					c0.2-0.2,0.4-0.4,0.5-0.7c0.1-0.2,0.2-0.5,0.3-0.8c0.1-0.3,0.1-0.6,0.1-0.9v-1.6h2.1v1.6c0,0.3,0,0.7,0.1,0.9
					c0.1,0.3,0.1,0.5,0.3,0.8c0.1,0.2,0.3,0.5,0.5,0.7c0.2,0.2,0.5,0.4,0.8,0.6c0.5,0.3,1,0.7,1.6,1c0.6,0.4,1.2,0.7,1.8,1l-1,1.6
					c-0.8-0.4-1.4-0.8-2-1.2c-0.6-0.3-1.1-0.7-1.5-0.9c-0.4-0.3-0.7-0.5-1-0.7C366.2,49.7,366,49.5,365.9,49.4L365.9,49.4z"/>
				<path class="st8" d="M381.6,50.5h-7.1v-6.6h2v1.8h3.2v-1.8h2V50.5z M376.4,48.8h3.2v-1.5h-3.2V48.8z M386,51.6v4.1h-7.4v1.1h7.8
					v1.6h-9.8v-4.2h7.4v-1.1h-7.5v-1.6H386z M386,50.9h-2v-7.4h2V50.9z"/>
			</g>
			<g>
				<path class="st19" d="M366.1,31.6c0.3,0.3,0.5,0.6,0.8,0.9c0.3,0.3,0.6,0.6,0.9,0.9l-1,1c-0.3-0.3-0.5-0.5-0.8-0.8
					c-0.3-0.3-0.5-0.5-0.7-0.7c-0.2-0.2-0.4-0.4-0.6-0.6c-0.2-0.2-0.3-0.3-0.3-0.4h0c0,0.1-0.2,0.3-0.3,0.5
					c-0.2,0.2-0.4,0.4-0.6,0.6c-0.2,0.2-0.5,0.5-0.7,0.7c-0.3,0.2-0.5,0.5-0.9,0.8l-1-1c0.7-0.6,1.3-1.2,1.8-1.8
					c0.2-0.2,0.3-0.4,0.4-0.6c0.1-0.2,0.2-0.4,0.3-0.5c0.1-0.2,0.1-0.4,0.2-0.6c0-0.2,0-0.4,0-0.7v-2.6h1.6v2.6c0,0.2,0,0.5,0,0.6
					c0,0.2,0.1,0.4,0.1,0.5s0.2,0.3,0.3,0.5C365.7,31.3,365.9,31.4,366.1,31.6z M366.8,29.4h2.2V26h1.5v11.2H369v-6.5h-2.2V29.4z"/>
				<path class="st19" d="M377.8,32.1h-5.3v-5.5h5.3V32.1z M376.3,27.9H374v2.9h2.3V27.9z M375.8,35.8h5.8v1.3h-7.3v-3.7h1.5V35.8z
					 M379.9,27.6V26h1.5V34h-1.5v-2.7h-1.5V30h1.5v-1.1h-1.5v-1.3H379.9z"/>
			</g>
			<path class="st8" d="M319,64.1c0.5,0,0.9,0.1,1.2,0.2c0.4,0.1,0.7,0.4,0.9,0.6c0.3,0.3,0.5,0.5,0.6,0.9c0.2,0.3,0.2,0.7,0.3,1.1
				h1.5v-3.2h1.4v9.3h-1.4v-4.8h-1.5c0,0.4-0.1,0.7-0.3,1.1c-0.2,0.3-0.4,0.6-0.6,0.9c-0.3,0.3-0.6,0.5-0.9,0.6
				c-0.4,0.1-0.8,0.2-1.2,0.2c-0.5,0-0.9-0.1-1.3-0.3c-0.4-0.2-0.7-0.4-1-0.7c-0.3-0.3-0.5-0.6-0.6-1c-0.1-0.4-0.2-0.8-0.2-1.1v-0.7
				c0-0.4,0.1-0.8,0.2-1.2c0.1-0.4,0.3-0.7,0.6-1c0.3-0.3,0.6-0.5,1-0.7C318.1,64.2,318.5,64.1,319,64.1z M319,69.6
				c0.3,0,0.5-0.1,0.7-0.2c0.2-0.1,0.4-0.2,0.5-0.4c0.1-0.2,0.2-0.4,0.3-0.6c0.1-0.2,0.1-0.5,0.1-0.7v-0.5c0-0.2,0-0.5-0.1-0.7
				c-0.1-0.2-0.2-0.4-0.3-0.6s-0.3-0.3-0.5-0.4c-0.2-0.1-0.5-0.2-0.7-0.2c-0.3,0-0.5,0.1-0.8,0.1c-0.2,0.1-0.4,0.2-0.5,0.4
				s-0.2,0.4-0.3,0.6c-0.1,0.2-0.1,0.5-0.1,0.7v0.5c0,0.2,0,0.5,0.1,0.7c0.1,0.2,0.2,0.4,0.3,0.6c0.1,0.2,0.3,0.3,0.5,0.4
				C318.5,69.6,318.8,69.6,319,69.6z M320.2,75.8h7.7v1.3h-9.2v-4.6h1.5V75.8z M326.2,63.5h1.4v9.8h-1.4V63.5z"/>
			<path class="st8" d="M335.9,66h-3.7v2.4h3.1v1.2h-3.1v2.8h0.9c0.3,0,0.7,0,1,0c0.3,0,0.6,0,0.9,0c0.3,0,0.6,0,0.9-0.1
				c0.3,0,0.6-0.1,1-0.1l0.2,1.2c-0.4,0.1-0.8,0.1-1.1,0.1c-0.3,0-0.7,0.1-1,0.1c-0.3,0-0.7,0-1,0c-0.3,0-0.7,0-1.1,0h-2v-9h5.2V66z
				 M338,63.8h1.5v12.8H338v-7h-1.9v-1.3h1.9V63.8z M342.2,77.2h-1.5V63.5h1.5V77.2z"/>
			<path class="st8" d="M346.2,71.9v-4.3h7.6v-1.8h-7.7v-1.3h9.2v4.3h-7.6v1.8h7.9v1.3h-4.1v2.2h5.6v1.3h-12.7v-1.3h5.6v-2.2H346.2z
				"/>
			<path class="st8" d="M358.7,72.5c0.4-0.4,0.8-0.8,1.1-1.2c0.3-0.3,0.6-0.7,0.8-0.9c0.2-0.3,0.4-0.6,0.5-0.8
				c0.1-0.2,0.2-0.5,0.3-0.8c0.1-0.3,0.1-0.6,0.1-0.9c0-0.3,0-0.6,0-1V66h-2.2v-1.3h3.7v2.2c0,0.5,0,0.9,0,1.3c0,0.4-0.1,0.7-0.1,1
				c-0.1,0.3-0.2,0.6-0.3,0.9c-0.1,0.3-0.3,0.6-0.6,0.9c-0.2,0.3-0.5,0.7-0.9,1.1c-0.4,0.4-0.8,0.8-1.3,1.3L358.7,72.5z M362.4,73.8
				c0.4-0.5,0.8-1,1.1-1.4c0.3-0.4,0.6-0.7,0.8-1.1c0.2-0.3,0.4-0.6,0.5-0.9c0.1-0.3,0.2-0.5,0.3-0.8c0.1-0.3,0.1-0.6,0.1-0.9
				c0-0.3,0-0.7,0-1V66h-1.7v-1.3h3.1v3c0,0.5,0,0.9,0,1.3c0,0.4-0.1,0.7-0.1,1c-0.1,0.3-0.2,0.6-0.3,0.9c-0.1,0.3-0.3,0.6-0.6,1
				c-0.2,0.4-0.5,0.7-0.9,1.2c-0.4,0.4-0.8,0.9-1.3,1.5L362.4,73.8z M369.7,77.2h-1.4V63.5h1.4v5.1h2v1.3h-2V77.2z"/>
			<path class="st8" d="M377.1,70.3c-0.1,0.2-0.2,0.3-0.3,0.5c-0.1,0.2-0.3,0.4-0.6,0.6c-0.3,0.3-0.7,0.7-1.1,1.1
				c-0.4,0.4-0.9,0.8-1.4,1.3l-1-1c0.9-0.8,1.7-1.6,2.4-2.3c0.2-0.3,0.4-0.5,0.6-0.7c0.2-0.2,0.3-0.4,0.4-0.6
				c0.1-0.2,0.1-0.4,0.2-0.7c0-0.2,0.1-0.5,0.1-0.7v-3.3h1.5v3.3c0,0.3,0,0.6,0.1,0.8c0,0.2,0.1,0.5,0.2,0.7
				c0.1,0.2,0.2,0.4,0.4,0.6c0.2,0.2,0.3,0.4,0.6,0.7c0.3,0.3,0.7,0.7,1,1c0.4,0.3,0.8,0.7,1.2,1.1l-1,1c-0.5-0.5-1-0.9-1.3-1.2
				c-0.4-0.4-0.7-0.7-1-1c-0.2-0.2-0.4-0.4-0.6-0.6C377.3,70.7,377.2,70.5,377.1,70.3L377.1,70.3z M386,69.7h-2.1v7.5h-1.5V63.5h1.5
				v5h2.1V69.7z"/>
		</g>
	</g>
	<path class="st20" d="M271.9,114.7c-0.5-0.6-1-1.2-1.5-1.8c-0.9-1-1.8-2.1-2.6-3.1c-1.5-1.9-2.9-3.8-4.1-5.8
		c-0.9-1.4-1.7-2.9-2.5-4.4c-0.9-1.7-1.6-3.6-2.1-5.5c-0.5-2-0.6-4.1-0.2-6.1c0.5-2.4,1.6-4.5,3.2-6.3c1.3-1.4,2.9-2.5,4.7-3.3
		c1.1-0.5,2.3-0.8,3.6-0.9c1.8-0.2,3.5-0.1,5.2,0.4c2.1,0.6,3.9,1.6,5.5,3.1c1.8,1.7,3,3.7,3.7,6c0.5,1.7,0.6,3.5,0.4,5.3
		c-0.3,3-1.4,5.8-2.8,8.5c-1.1,2.1-2.4,4.1-3.8,6c-1.4,1.9-2.8,3.7-4.4,5.4c-0.7,0.8-1.4,1.6-2.1,2.4
		C272.1,114.6,272,114.6,271.9,114.7z M272,84.6c-3.3,0-6,2.7-6,5.9c-0.1,3.3,2.6,6.1,6,6.1c3.3,0,6-2.6,6-6
		C277.9,87.2,275.1,84.6,272,84.6z"/>
</g>
</svg>
