<svg width="897" height="538" viewBox="0 0 897 538" fill="none" xmlns="http://www.w3.org/2000/svg">
<g id="Premium" clip-path="url(#clip0_386_266)">
<rect width="897" height="538" fill="white"/>
<path id="line" d="M95 538L183.678 414.349L730.5 115.5L789.5 435.5" stroke="#A4A4A4" stroke-width="2"/>
<g id="point-1">
<circle id="Ellipse 15" cx="184.351" cy="414.349" r="4.71328" fill="#DD581E"/>
<g id="Group 58">
<g id="Group 57">
<path id="&#236;&#157;&#180;&#235;&#167;&#136;&#237;&#138;&#184;&#237;&#138;&#184;&#235;&#160;&#136;&#236;&#157;&#180;&#235;&#141;&#148;&#236;&#138;&#164;" d="M41.9748 409.797V427.311H44.5011V409.797H41.9748ZM35.0934 411.022C32.454 411.022 30.5121 413.435 30.5121 417.244C30.5121 421.09 32.454 423.503 35.0934 423.503C37.7329 423.503 39.6747 421.09 39.6747 417.244C39.6747 413.435 37.7329 411.022 35.0934 411.022ZM35.0934 413.303C36.3943 413.303 37.2615 414.68 37.2615 417.244C37.2615 419.845 36.3943 421.24 35.0934 421.24C33.7926 421.24 32.9065 419.845 32.9065 417.244C32.9065 414.68 33.7926 413.303 35.0934 413.303ZM47.2145 411.456V423.031H55.5664V411.456H47.2145ZM53.0967 413.416V421.052H49.6843V413.416H53.0967ZM57.8476 409.815V427.273H60.374V409.815H57.8476ZM59.8084 416.395V418.469H62.9003V416.395H59.8084ZM65.2366 418.808V420.769H77.51V418.808H65.2366ZM63.389 423.239V425.275H79.1879V423.239H63.389ZM65.2366 411.079V419.355H67.7818V413.096H77.3591V411.079H65.2366ZM67.0088 414.925V416.866H76.9632V414.925H67.0088ZM81.9201 418.808V420.769H94.1935V418.808H81.9201ZM80.0725 423.239V425.275H95.8714V423.239H80.0725ZM81.9201 411.079V419.355H84.4653V413.096H94.0427V411.079H81.9201ZM83.6923 414.925V416.866H93.6467V414.925H83.6923ZM97.2085 421.146V423.201H98.4528C100.64 423.201 102.563 423.145 104.806 422.73L104.599 420.713C102.431 421.09 100.564 421.146 98.4528 421.146H97.2085ZM97.1897 411.531V413.511H100.941V416.244H97.2085V421.938H99.6406V418.205H103.355V411.531H97.1897ZM109.35 409.815V427.273H111.725V409.815H109.35ZM104.071 415.754V417.809H106.786V415.754H104.071ZM105.806 410.136V426.444H108.124V410.136H105.806ZM125.392 409.797V427.311H127.919V409.797H125.392ZM118.511 411.022C115.872 411.022 113.93 413.435 113.93 417.244C113.93 421.09 115.872 423.503 118.511 423.503C121.15 423.503 123.092 421.09 123.092 417.244C123.092 413.435 121.15 411.022 118.511 411.022ZM118.511 413.303C119.812 413.303 120.679 414.68 120.679 417.244C120.679 419.845 119.812 421.24 118.511 421.24C117.21 421.24 116.324 419.845 116.324 417.244C116.324 414.68 117.21 413.303 118.511 413.303ZM130.934 421.052V423.107H132.348C135.534 423.107 137.627 423.013 139.964 422.579L139.719 420.562C137.457 420.976 135.44 421.052 132.348 421.052H130.934ZM130.934 411.361V421.825H133.441V413.36H138.833V411.361H130.934ZM142.264 409.815V427.33H144.772V409.815H142.264ZM137.985 415.83V417.866H143.32V415.83H137.985ZM153.273 410.815V412.078C153.273 414.585 151.105 417.357 147.165 418.035L148.239 420.109C152.764 419.223 155.46 415.867 155.46 412.078V410.815H153.273ZM153.782 410.815V412.078C153.782 415.924 156.459 419.223 160.984 420.109L162.059 418.035C158.1 417.357 155.95 414.642 155.95 412.078V410.815H153.782ZM146.807 423.107V425.143H162.606V423.107H146.807Z" fill="#DD551B"/>
<line id="Line 36" x1="28.813" y1="404.922" x2="163.478" y2="404.922" stroke="#DB4D16" stroke-opacity="0.5" stroke-width="1.34665"/>
<line id="Line 37" x1="28.813" y1="430.509" x2="163.478" y2="430.509" stroke="#DB4D16" stroke-opacity="0.5" stroke-width="1.34665"/>
</g>
<path id="&#235;&#161;&#175;&#235;&#141;&#176;&#235;&#167;&#136;&#237;&#138;&#184;, &#236;&#130;&#188;&#236;&#132;&#177;&#235;&#148;&#148;&#236;&#167;&#128;&#237;&#132;&#184;&#237;&#148;&#132;&#235;&#157;&#188;&#236;&#158;&#144;, LG&#235;&#178;&#160;&#236;&#138;&#164;&#237;&#138;&#184;&#236;&#131;&#181; &#235;&#147;&#177; &#236;&#135;&#188;&#237;&#149;&#145;&#194;&#183;&#236;&#156;&#160;&#237;&#134;&#181; &#236;&#157;&#184;&#237;&#148;&#132;&#235;&#157;&#188;" d="M14.896 357.125V358.027H25.9386V357.125H14.896ZM19.8517 355.482V357.623H20.9694V355.482H19.8517ZM16.2966 350.93V351.819H23.4203V353.004H16.3235V355.428H17.4278V353.825H24.5111V350.93H16.2966ZM16.3235 355.037V355.926H24.7805V355.037H16.3235ZM19.8517 358.687V358.902C19.8517 360.437 18.0068 361.542 15.7714 361.838L16.1619 362.7C18.6667 362.323 20.8078 361.003 20.8078 358.902V358.687H19.8517ZM20.0268 358.687V358.902C20.0268 361.003 22.1545 362.323 24.6593 362.7L25.0633 361.838C22.8278 361.542 20.9829 360.437 20.9829 358.902V358.687H20.0268ZM36.0778 350.566V362.74H37.1551V350.566H36.0778ZM31.0279 355.212V356.128H34.0848V355.212H31.0279ZM33.6269 350.849V362.121H34.6908V350.849H33.6269ZM27.2707 358.875V359.818H28.0518C29.9909 359.818 31.1625 359.764 32.5496 359.468L32.4419 358.539C31.0952 358.821 29.9505 358.875 28.0518 358.875H27.2707ZM27.2707 352.048V359.239H28.375V352.963H31.8493V352.048H27.2707ZM39.2145 351.778V359.656H44.8031V351.778H39.2145ZM43.7123 352.681V358.754H40.3052V352.681H43.7123ZM46.9712 350.566V362.74H48.1023V350.566H46.9712ZM47.833 355.428V356.37H50.0954V355.428H47.833ZM52.0739 357.125V358.027H60.4366V357.125H52.0739ZM50.6599 360.249V361.178H61.689V360.249H50.6599ZM52.0739 351.603V357.407H53.2051V352.519H60.3019V351.603H52.0739ZM52.8415 354.324V355.212H60.0461V354.324H52.8415ZM64.489 360.276C64.4082 360.59 64.3049 360.931 64.1792 361.299C64.0536 361.667 63.9144 362.031 63.7618 362.39C63.6181 362.758 63.4745 363.104 63.3309 363.427H62.4555C62.5453 363.086 62.6306 362.718 62.7114 362.323C62.8012 361.937 62.882 361.555 62.9538 361.178C63.0256 360.792 63.084 360.442 63.1289 360.128H64.3947L64.489 360.276ZM71.7251 351.186V352.384C71.7251 354.243 70.5266 355.872 68.6817 356.545L69.2742 357.434C71.3211 356.653 72.6408 354.741 72.6408 352.384V351.186H71.7251ZM71.9271 351.186V352.371C71.9271 354.512 73.2468 356.357 75.2129 357.098L75.792 356.209C74.0414 355.589 72.8294 354.027 72.8294 352.371V351.186H71.9271ZM77.0579 350.566V357.69H78.1756V350.566H77.0579ZM77.8658 353.583V354.526H79.9801V353.583H77.8658ZM70.5266 358.256V362.578H78.1756V358.256H70.5266ZM77.0848 359.145V361.676H71.6174V359.145H77.0848ZM83.7093 351.253V352.506C83.7093 354.364 82.4973 355.993 80.6389 356.653L81.218 357.569C83.3053 356.788 84.6384 354.862 84.6384 352.506V351.253H83.7093ZM83.9113 351.253V352.465C83.9113 354.674 85.2175 356.465 87.1836 357.205L87.7896 356.33C86.012 355.711 84.827 354.189 84.827 352.465V351.253H83.9113ZM89.5403 350.566V357.771H90.658V350.566H89.5403ZM86.6584 358.121C84.1402 358.121 82.5915 358.969 82.5915 360.424C82.5915 361.878 84.1402 362.713 86.6584 362.713C89.1632 362.713 90.7118 361.878 90.7118 360.424C90.7118 358.969 89.1632 358.121 86.6584 358.121ZM86.6584 359.01C88.4899 359.01 89.6076 359.535 89.6076 360.424C89.6076 361.313 88.4899 361.838 86.6584 361.838C84.827 361.838 83.7093 361.313 83.7093 360.424C83.7093 359.535 84.827 359.01 86.6584 359.01ZM86.9008 353.138V354.068H89.7827V353.138H86.9008ZM101.403 350.566V362.767H102.521V350.566H101.403ZM93.3502 358.794V359.737H94.3333C96.7842 359.737 98.3732 359.67 100.232 359.32L100.11 358.377C98.3059 358.714 96.7438 358.794 94.3333 358.794H93.3502ZM93.3502 351.724V359.145H94.4545V352.654H99.1004V351.724H93.3502ZM107.704 352.304V354.283C107.704 356.384 106.237 358.673 104.473 359.508L105.119 360.397C107.058 359.441 108.607 356.855 108.607 354.283V352.304H107.704ZM107.92 352.304V354.283C107.92 356.815 109.482 359.185 111.448 360.101L112.081 359.212C110.29 358.444 108.822 356.343 108.822 354.283V352.304H107.92ZM104.876 351.805V352.748H111.677V351.805H104.876ZM113.32 350.566V362.74H114.438V350.566H113.32ZM117.009 355.764V356.653H117.898C120.268 356.653 121.601 356.626 123.23 356.357L123.123 355.468C121.547 355.724 120.227 355.764 117.898 355.764H117.009ZM117.009 351.32V356.317H118.113V352.209H122.503V351.32H117.009ZM117.803 353.502V354.364H122.166V353.502H117.803ZM123.015 353.354V354.256H125.56V353.354H123.015ZM125.291 350.566V357.138H126.408V350.566H125.291ZM118.571 357.69V358.565H125.304V359.683H118.598V362.296H119.689V360.518H126.408V357.69H118.571ZM118.598 361.73V362.605H126.853V361.73H118.598ZM128.32 360.249V361.178H139.349V360.249H128.32ZM129.276 351.778V352.694H138.312V351.778H129.276ZM129.303 356.923V357.838H138.298V356.923H129.303ZM131.174 352.627V357.017H132.292V352.627H131.174ZM135.322 352.627V357.017H136.426V352.627H135.322ZM148.478 350.553V362.754H149.596V350.553H148.478ZM149.326 355.401V356.343H151.589V355.401H149.326ZM140.721 358.889V359.818H141.691C144.02 359.818 145.636 359.724 147.535 359.387L147.414 358.458C145.569 358.808 143.98 358.889 141.691 358.889H140.721ZM140.694 351.698V352.613H145.098V355.145H140.721V359.266H141.825V356.061H146.202V351.698H140.694ZM155.156 352.304V354.283C155.156 356.343 153.688 358.66 151.951 359.508L152.598 360.397C154.496 359.427 156.045 356.815 156.045 354.283V352.304H155.156ZM155.358 352.304V354.283C155.358 356.694 156.826 359.145 158.752 360.101L159.385 359.212C157.621 358.377 156.247 356.209 156.247 354.283V352.304H155.358ZM152.382 351.805V352.748H158.94V351.805H152.382ZM160.381 350.566V362.74H161.512V350.566H160.381ZM161.243 355.482V356.424H163.505V355.482H161.243ZM165.982 360.276C165.901 360.59 165.798 360.931 165.673 361.299C165.547 361.667 165.408 362.031 165.255 362.39C165.111 362.758 164.968 363.104 164.824 363.427H163.949C164.039 363.086 164.124 362.718 164.205 362.323C164.294 361.937 164.375 361.555 164.447 361.178C164.519 360.792 164.577 360.442 164.622 360.128H165.888L165.982 360.276ZM89.5703 378.69V369.075H90.7823V377.612H94.9839V378.69H89.5703ZM100.073 373.613H103.399V378.326C102.878 378.497 102.353 378.622 101.823 378.703C101.294 378.784 100.692 378.824 100.019 378.824C99.0222 378.824 98.1828 378.627 97.5005 378.232C96.8182 377.828 96.2975 377.258 95.9384 376.522C95.5883 375.776 95.4132 374.897 95.4132 373.882C95.4132 372.877 95.6107 372.006 96.0057 371.27C96.4008 370.533 96.9664 369.963 97.7025 369.559C98.4477 369.146 99.3454 368.94 100.396 368.94C100.934 368.94 101.442 368.989 101.918 369.088C102.402 369.187 102.851 369.326 103.264 369.506L102.806 370.556C102.465 370.403 102.079 370.273 101.648 370.165C101.226 370.058 100.786 370.004 100.328 370.004C99.5654 370.004 98.91 370.161 98.3624 370.475C97.8147 370.789 97.3973 371.238 97.11 371.822C96.8227 372.396 96.6791 373.083 96.6791 373.882C96.6791 374.645 96.8003 375.323 97.0427 375.916C97.294 376.499 97.6846 376.957 98.2143 377.289C98.7439 377.612 99.4397 377.774 100.302 377.774C100.589 377.774 100.84 377.765 101.056 377.747C101.28 377.72 101.482 377.689 101.662 377.653C101.85 377.617 102.025 377.581 102.187 377.545V374.69H100.073V373.613ZM105.022 368.765V376.683H109.682V368.765H108.645V371.728H106.086V368.765H105.022ZM106.086 372.63H108.645V375.767H106.086V372.63ZM113.856 367.566V379.74H114.933V367.566H113.856ZM109.493 372.185V373.115H111.836V372.185H109.493ZM111.446 367.822V379.134H112.509V367.822H111.446ZM121.383 368.401V369.33C121.383 371.404 119.094 373.263 116.952 373.667L117.451 374.596C119.888 374.044 122.352 371.983 122.352 369.33V368.401H121.383ZM121.585 368.401V369.33C121.585 371.997 124.063 374.044 126.487 374.596L126.985 373.667C124.857 373.263 122.554 371.418 122.554 369.33V368.401H121.585ZM116.508 377.181V378.097H127.537V377.181H116.508ZM129.839 374.125V375.027H138.201V374.125H129.839ZM128.425 377.249V378.178H139.454V377.249H128.425ZM129.839 368.603V374.407H130.97V369.519H138.067V368.603H129.839ZM130.606 371.324V372.212H137.811V371.324H130.606ZM149.445 369.196V370.112H151.559V369.196H149.445ZM149.445 371.633V372.562H151.559V371.633H149.445ZM143.331 368.105V369.277C143.331 371.095 142.133 372.697 140.288 373.343L140.88 374.219C142.914 373.451 144.247 371.593 144.247 369.277V368.105H143.331ZM143.533 368.105V369.263C143.533 371.391 144.866 373.195 146.819 373.909L147.411 373.047C145.661 372.428 144.435 370.906 144.435 369.263V368.105H143.533ZM148.664 367.566V374.246H149.782V367.566H148.664ZM142.106 374.838V379.578H149.782V374.838H148.677V376.293H143.21V374.838H142.106ZM143.21 377.168H148.677V378.663H143.21V377.168ZM155.285 373.357V374.286H166.287V373.357H155.285ZM156.672 371.297V372.199H165.008V371.297H156.672ZM156.672 368.051V371.728H157.777V368.967H164.914V368.051H156.672ZM160.766 375.337C158.167 375.337 156.591 376.131 156.591 377.532C156.591 378.932 158.167 379.713 160.766 379.713C163.365 379.713 164.941 378.932 164.941 377.532C164.941 376.131 163.365 375.337 160.766 375.337ZM160.766 376.198C162.678 376.198 163.81 376.683 163.81 377.532C163.81 378.367 162.678 378.838 160.766 378.838C158.867 378.838 157.723 378.367 157.723 377.532C157.723 376.683 158.867 376.198 160.766 376.198ZM80.6151 392.529V395.774H81.7194V392.529H80.6151ZM84.5473 392.529V395.774H85.6516V392.529H84.5473ZM77.6255 395.262V396.191H88.6546V395.262H77.6255ZM82.5004 386.361V387.29C82.5004 389.27 80.1842 390.98 78.0161 391.343L78.4874 392.259C80.9652 391.774 83.47 389.849 83.47 387.29V386.361H82.5004ZM82.7024 386.361V387.29C82.7024 389.849 85.2072 391.774 87.6985 392.259L88.1563 391.343C85.9882 390.98 83.672 389.27 83.672 387.29V386.361H82.7024ZM90.081 386.603V387.532H96.6123V386.603H90.081ZM89.879 392.165C91.9259 392.165 94.8077 392.125 97.2856 391.707L97.1913 390.886C94.7673 391.195 91.8316 391.222 89.7443 391.222L89.879 392.165ZM91.2795 387.25V391.653H92.3568V387.25H91.2795ZM94.323 387.25V391.653H95.4137V387.25H94.323ZM98.3898 385.58V393.027H99.521V385.58H98.3898ZM95.508 393.296C92.9628 393.296 91.4277 394.104 91.4277 395.491C91.4277 396.905 92.9628 397.713 95.508 397.713C98.0397 397.713 99.6018 396.905 99.6018 395.491C99.6018 394.104 98.0397 393.296 95.508 393.296ZM95.508 394.171C97.3664 394.171 98.4841 394.67 98.4841 395.491C98.4841 396.353 97.3664 396.838 95.508 396.838C93.6496 396.838 92.5319 396.353 92.5319 395.491C92.5319 394.67 93.6496 394.171 95.508 394.171ZM101.755 391.936C101.755 391.604 101.836 391.37 101.998 391.236C102.159 391.101 102.352 391.034 102.577 391.034C102.81 391.034 103.008 391.101 103.169 391.236C103.34 391.37 103.425 391.604 103.425 391.936C103.425 392.259 103.34 392.493 103.169 392.636C103.008 392.78 102.81 392.852 102.577 392.852C102.352 392.852 102.159 392.78 101.998 392.636C101.836 392.493 101.755 392.259 101.755 391.936ZM107.406 393.094V397.74H108.55V393.094H107.406ZM111.594 393.094V397.74H112.738V393.094H111.594ZM104.578 392.488V393.417H115.62V392.488H104.578ZM110.072 386.051C107.54 386.051 105.817 387.075 105.817 388.704C105.817 390.32 107.54 391.357 110.072 391.357C112.617 391.357 114.327 390.32 114.327 388.704C114.327 387.075 112.617 386.051 110.072 386.051ZM110.072 386.953C111.93 386.953 113.183 387.64 113.183 388.704C113.183 389.768 111.93 390.455 110.072 390.455C108.214 390.455 106.948 389.768 106.948 388.704C106.948 387.64 108.214 386.953 110.072 386.953ZM116.494 392.017V392.919H127.497V392.017H116.494ZM121.437 390.441V392.394H122.541V390.441H121.437ZM117.949 389.943V390.818H126.204V389.943H117.949ZM117.949 385.916V390.414H119.053V386.792H126.15V385.916H117.949ZM118.73 387.91V388.771H125.827V387.91H118.73ZM121.989 393.821C119.336 393.821 117.814 394.495 117.814 395.774C117.814 397.04 119.336 397.713 121.989 397.713C124.642 397.713 126.163 397.04 126.163 395.774C126.163 394.495 124.642 393.821 121.989 393.821ZM121.989 394.67C123.941 394.67 125.032 395.06 125.032 395.774C125.032 396.501 123.941 396.878 121.989 396.878C120.036 396.878 118.945 396.501 118.945 395.774C118.945 395.06 120.036 394.67 121.989 394.67ZM140.299 385.58V394.468H141.43V385.58H140.299ZM133.606 396.555V397.471H141.794V396.555H133.606ZM133.606 393.552V396.865H134.71V393.552H133.606ZM134.899 386.415C133.081 386.415 131.721 387.654 131.721 389.418C131.721 391.168 133.081 392.421 134.899 392.421C136.717 392.421 138.064 391.168 138.064 389.418C138.064 387.654 136.717 386.415 134.899 386.415ZM134.899 387.384C136.084 387.384 136.986 388.219 136.986 389.418C136.986 390.603 136.084 391.438 134.899 391.438C133.714 391.438 132.812 390.603 132.812 389.418C132.812 388.219 133.714 387.384 134.899 387.384ZM143.368 395.249V396.178H154.397V395.249H143.368ZM144.325 386.778V387.694H153.361V386.778H144.325ZM144.351 391.923V392.838H153.347V391.923H144.351ZM146.223 387.627V392.017H147.341V387.627H146.223ZM150.371 387.627V392.017H151.475V387.627H150.371ZM163.527 385.553V397.754H164.644V385.553H163.527ZM164.375 390.401V391.343H166.637V390.401H164.375ZM155.77 393.889V394.818H156.74C159.069 394.818 160.685 394.724 162.584 394.387L162.463 393.458C160.618 393.808 159.029 393.889 156.74 393.889H155.77ZM155.743 386.698V387.613H160.147V390.145H155.77V394.266H156.874V391.061H161.251V386.698H155.743Z" fill="#DD551B"/>
</g>
</g>
<g id="point-2">
<g id="Group 58_2">
<g id="Group 62">
<circle id="Ellipse 15_2" cx="730.086" cy="112.939" r="4.71328" fill="#1169AB"/>
<g id="Group 57_2">
<path id="&#236;&#191;&#188;&#235;&#147;&#156;&#235;&#159;&#172;&#237;&#148;&#140;&#236;&#151;&#173;&#236;&#132;&#184;&#234;&#182;&#140;" d="M673.783 73.5924V75.5908H681.267V73.5924H673.783ZM680.117 73.5924V74.6859C680.117 76.1941 680.117 78.3434 679.42 81.4164H681.908C682.587 78.3057 682.587 76.2318 682.587 74.6859V73.5924H680.117ZM680.419 76.986L673.349 77.2876L673.688 79.3615L680.419 78.8147V76.986ZM676.61 81.8878V88.9765H679.118V81.8878H676.61ZM684.868 72.2727V89.7307H687.376V72.2727H684.868ZM672.632 83.0001C675.913 82.9812 680.042 82.9058 683.907 82.246L683.737 80.4738C679.966 80.9451 675.649 80.9828 672.312 81.0017L672.632 83.0001ZM681.399 83.7731V85.7149H685.377V83.7731H681.399ZM691.069 80.323V82.3214H703.343V80.323H691.069ZM689.241 85.583V87.638H705.039V85.583H689.241ZM691.069 73.7055V81.1525H693.558V75.7417H703.211V73.7055H691.069ZM718.009 72.2538V89.7684H720.516V72.2538H718.009ZM715.275 78.5508V80.5681H718.518V78.5508H715.275ZM706.509 83.66V85.7338H707.941C710.845 85.7338 713.183 85.6395 715.765 85.2059L715.539 83.1698C713.013 83.6034 710.769 83.66 707.941 83.66H706.509ZM706.471 73.7432V75.7417H711.863V78.3245H706.509V84.2821H708.997V80.3041H714.333V73.7432H706.471ZM723.965 72.744V74.6105H736.974V72.744H723.965ZM724.097 76.8351V78.7016H736.842V76.8351H724.097ZM726.19 73.4793V78.0417H728.697V73.4793H726.19ZM732.242 73.4793V78.0417H734.749V73.4793H732.242ZM722.589 79.6065V81.5673H738.369V79.6065H722.589ZM724.399 82.5288V84.3198H733.995V85.1871H724.418V88.4864H726.887V86.865H736.465V82.5288H724.399ZM724.418 87.7888V89.6175H736.917V87.7888H724.418ZM747.002 74.6105V76.6278H752.168V74.6105H747.002ZM747.002 78.3999V80.4172H752.168V78.3999H747.002ZM741.987 83.396V85.3756H751.376V89.7307H753.883V83.396H741.987ZM751.376 72.2727V82.6042H753.883V72.2727H751.376ZM744.099 73.1776C741.478 73.1776 739.48 74.9875 739.48 77.495C739.48 80.0213 741.478 81.8312 744.099 81.8312C746.7 81.8312 748.699 80.0213 748.699 77.495C748.699 74.9875 746.7 73.1776 744.099 73.1776ZM744.099 75.308C745.362 75.308 746.323 76.1187 746.323 77.495C746.323 78.8901 745.362 79.7008 744.099 79.7008C742.817 79.7008 741.874 78.8901 741.874 77.495C741.874 76.1187 742.817 75.308 744.099 75.308ZM762.837 78.136V80.1721H765.722V78.136H762.837ZM759.104 73.7809V76.722C759.104 79.682 758.199 82.7927 755.635 84.3764L757.144 86.2617C759.934 84.5461 761.027 80.6812 761.027 76.722V73.7809H759.104ZM759.651 73.7809V76.6089C759.651 80.3795 760.518 84.1501 763.29 85.8658L764.647 83.9051C762.272 82.3591 761.536 79.4557 761.536 76.6089V73.7809H759.651ZM768.569 72.2727V89.7307H770.963V72.2727H768.569ZM765.024 72.5366V88.9388H767.362V72.5366H765.024ZM777.108 80.4172V84.3387H779.596V80.4172H777.108ZM784.95 72.2727V85.4133H787.477V72.2727H784.95ZM774.902 87.4306V89.429H787.854V87.4306H774.902ZM774.902 84.1124V87.9208H777.409V84.1124H774.902ZM772.828 80.8508C775.976 80.832 780.124 80.7377 783.914 80.059L783.744 78.2868C780.03 78.7959 775.712 78.8524 772.526 78.8713L772.828 80.8508ZM781.595 81.5861V83.528H785.516V81.5861H781.595ZM774.11 73.1399V75.1195H781.519V73.1399H774.11ZM779.936 73.1399V73.7432C779.936 74.7236 779.936 76.4958 779.521 79.0787L781.972 79.2483C782.424 76.6466 782.424 74.7613 782.424 73.7432V73.1399H779.936Z" fill="#1169AB"/>
<line id="Line 36_2" x1="663.427" y1="67.3794" x2="798.092" y2="67.3794" stroke="#1169AB" stroke-width="1.34665"/>
<line id="Line 37_2" x1="663.427" y1="92.9656" x2="798.092" y2="92.9656" stroke="#1169AB" stroke-width="1.34665"/>
</g>
<path id="&#236;&#132;&#156;&#235;&#169;&#180;&#236;&#151;&#173;&#194;&#183;&#235;&#182;&#128;&#236;&#160;&#132;&#236;&#151;&#173;&#194;&#183;&#235;&#182;&#128;&#236;&#149;&#148;&#236;&#151;&#173;&#194;&#183; &#235;&#182;&#128;&#236;&#154;&#184;&#234;&#178;&#189;&#236;&#157;&#132; &#236;&#158;&#135;&#235;&#138;&#148; &#235;&#182;&#128;&#236;&#160;&#132;&#236;&#151;&#173; &#235;&#143;&#153;&#237;&#149;&#180;&#236;&#132;&#160;" d="M678.687 35.9974V36.9131H682.081V35.9974H678.687ZM675.752 32.9271V35.0952C675.752 37.3575 674.378 39.7007 672.587 40.5895L673.301 41.4783C675.227 40.4414 676.667 37.8289 676.667 35.0952V32.9271H675.752ZM675.967 32.9271V35.0952C675.967 37.7615 677.381 40.2663 679.347 41.2628L680.007 40.3606C678.243 39.5256 676.869 37.3171 676.869 35.0952V32.9271H675.967ZM681.529 31.8632V44.0639H682.633V31.8632H681.529ZM690.362 34.0178V34.9336H693.769V34.0178H690.362ZM690.362 36.6169V37.5461H693.796V36.6169H690.362ZM685.083 32.9271V38.6369H690.645V32.9271H685.083ZM689.54 33.8293V37.7346H686.174V33.8293H689.54ZM693.419 31.8901V40.778H694.536V31.8901H693.419ZM686.712 42.8653V43.7811H694.833V42.8653H686.712ZM686.712 39.97V43.2828H687.83V39.97H686.712ZM701.982 33.6677V34.5834H705.699V33.6677H701.982ZM701.982 36.3879V37.3171H705.699V36.3879H701.982ZM698.333 39.7276V40.6299H705.336V44.0504H706.453V39.7276H698.333ZM705.336 31.8767V39.0543H706.453V31.8767H705.336ZM699.76 32.55C697.956 32.55 696.623 33.762 696.623 35.4857C696.623 37.2094 697.956 38.4079 699.76 38.4079C701.551 38.4079 702.898 37.2094 702.898 35.4857C702.898 33.762 701.551 32.55 699.76 32.55ZM699.76 33.5061C700.945 33.5061 701.834 34.3276 701.834 35.4857C701.834 36.6438 700.945 37.4518 699.76 37.4518C698.575 37.4518 697.7 36.6438 697.7 35.4857C697.7 34.3276 698.575 33.5061 699.76 33.5061ZM708.661 38.2463C708.661 37.9142 708.741 37.6807 708.903 37.5461C709.065 37.4114 709.258 37.3441 709.482 37.3441C709.716 37.3441 709.913 37.4114 710.075 37.5461C710.245 37.6807 710.331 37.9142 710.331 38.2463C710.331 38.5695 710.245 38.8029 710.075 38.9466C709.913 39.0902 709.716 39.162 709.482 39.162C709.258 39.162 709.065 39.0902 708.903 38.9466C708.741 38.8029 708.661 38.5695 708.661 38.2463ZM711.483 39.0812V39.997H722.526V39.0812H711.483ZM716.412 39.5122V44.0504H717.516V39.5122H716.412ZM712.87 32.3615V37.6269H721.112V32.3615H720.007V34.0313H713.988V32.3615H712.87ZM713.988 34.9336H720.007V36.7246H713.988V34.9336ZM729.864 35.2298V36.1455H732.934V35.2298H729.864ZM732.301 31.8901V40.805H733.419V31.8901H732.301ZM725.649 42.8653V43.7811H733.756V42.8653H725.649ZM725.649 40.0239V43.3367H726.766V40.0239H725.649ZM726.511 33.3984V34.3814C726.511 36.1051 725.258 37.7211 723.44 38.3675L724.019 39.2563C726.053 38.5022 727.426 36.5899 727.426 34.3814V33.3984H726.511ZM726.726 33.3984V34.368C726.726 36.4283 728.032 38.2598 730.012 38.9735L730.577 38.0982C728.813 37.4787 727.628 35.9436 727.628 34.368V33.3984H726.726ZM723.79 32.8732V33.7754H730.295V32.8732H723.79ZM740.865 33.6677V34.5834H744.582V33.6677H740.865ZM740.865 36.3879V37.3171H744.582V36.3879H740.865ZM737.215 39.7276V40.6299H744.218V44.0504H745.336V39.7276H737.215ZM744.218 31.8767V39.0543H745.336V31.8767H744.218ZM738.643 32.55C736.838 32.55 735.505 33.762 735.505 35.4857C735.505 37.2094 736.838 38.4079 738.643 38.4079C740.434 38.4079 741.781 37.2094 741.781 35.4857C741.781 33.762 740.434 32.55 738.643 32.55ZM738.643 33.5061C739.828 33.5061 740.717 34.3276 740.717 35.4857C740.717 36.6438 739.828 37.4518 738.643 37.4518C737.458 37.4518 736.582 36.6438 736.582 35.4857C736.582 34.3276 737.458 33.5061 738.643 33.5061ZM747.543 38.2463C747.543 37.9142 747.624 37.6807 747.786 37.5461C747.947 37.4114 748.14 37.3441 748.365 37.3441C748.598 37.3441 748.796 37.4114 748.957 37.5461C749.128 37.6807 749.213 37.9142 749.213 38.2463C749.213 38.5695 749.128 38.8029 748.957 38.9466C748.796 39.0902 748.598 39.162 748.365 39.162C748.14 39.162 747.947 39.0902 747.786 38.9466C747.624 38.8029 747.543 38.5695 747.543 38.2463ZM750.365 39.0812V39.997H761.408V39.0812H750.365ZM755.294 39.5122V44.0504H756.398V39.5122H755.294ZM751.752 32.3615V37.6269H759.994V32.3615H758.89V34.0313H752.87V32.3615H751.752ZM752.87 34.9336H758.89V36.7246H752.87V34.9336ZM770.618 31.8767V38.9062H771.736V31.8767H770.618ZM771.426 34.8528V35.782H773.54V34.8528H771.426ZM764.087 39.4987V43.8888H771.736V39.4987H764.087ZM770.645 40.3875V42.9865H765.178V40.3875H770.645ZM765.689 32.5904C763.858 32.5904 762.511 33.7754 762.511 35.4722C762.511 37.1555 763.858 38.3271 765.689 38.3271C767.521 38.3271 768.867 37.1555 768.867 35.4722C768.867 33.7754 767.521 32.5904 765.689 32.5904ZM765.689 33.533C766.901 33.533 767.777 34.3276 767.777 35.4722C767.777 36.6169 766.901 37.3979 765.689 37.3979C764.477 37.3979 763.602 36.6169 763.602 35.4722C763.602 34.3276 764.477 33.533 765.689 33.533ZM779.747 33.6677V34.5834H783.464V33.6677H779.747ZM779.747 36.3879V37.3171H783.464V36.3879H779.747ZM776.098 39.7276V40.6299H783.1V44.0504H784.218V39.7276H776.098ZM783.1 31.8767V39.0543H784.218V31.8767H783.1ZM777.525 32.55C775.721 32.55 774.388 33.762 774.388 35.4857C774.388 37.2094 775.721 38.4079 777.525 38.4079C779.316 38.4079 780.663 37.2094 780.663 35.4857C780.663 33.762 779.316 32.55 777.525 32.55ZM777.525 33.5061C778.71 33.5061 779.599 34.3276 779.599 35.4857C779.599 36.6438 778.71 37.4518 777.525 37.4518C776.34 37.4518 775.465 36.6438 775.465 35.4857C775.465 34.3276 776.34 33.5061 777.525 33.5061ZM786.426 38.2463C786.426 37.9142 786.506 37.6807 786.668 37.5461C786.83 37.4114 787.023 37.3441 787.247 37.3441C787.48 37.3441 787.678 37.4114 787.84 37.5461C788.01 37.6807 788.095 37.9142 788.095 38.2463C788.095 38.5695 788.01 38.8029 787.84 38.9466C787.678 39.0902 787.48 39.162 787.247 39.162C787.023 39.162 786.83 39.0902 786.668 38.9466C786.506 38.8029 786.426 38.5695 786.426 38.2463ZM654.883 56.0812V56.997H665.926V56.0812H654.883ZM659.812 56.5122V61.0504H660.916V56.5122H659.812ZM656.27 49.3615V54.6269H664.512V49.3615H663.407V51.0313H657.388V49.3615H656.27ZM657.388 51.9336H663.407V53.7246H657.388V51.9336ZM671.742 54.5999V56.4718H672.846V54.5999H671.742ZM672.308 49.0248C669.614 49.0248 668.025 49.7655 668.025 51.1256C668.025 52.4857 669.614 53.2398 672.308 53.2398C674.988 53.2398 676.59 52.4857 676.59 51.1256C676.59 49.7655 674.988 49.0248 672.308 49.0248ZM672.308 49.8732C674.287 49.8732 675.432 50.331 675.432 51.1256C675.432 51.9336 674.287 52.3914 672.308 52.3914C670.315 52.3914 669.17 51.9336 669.17 51.1256C669.17 50.331 670.315 49.8732 672.308 49.8732ZM666.8 54.0209V54.9366H677.802V54.0209H666.8ZM668.133 56.0543V56.9162H675.297V57.9935H668.16V60.2828H669.264V58.8015H676.402V56.0543H668.133ZM668.16 60.0404V60.9157H676.765V60.0404H668.16ZM684.548 51.1121V52.0278H687.807V51.1121H684.548ZM684.44 53.6438V54.5595H687.726V53.6438H684.44ZM687.618 48.8767V56.1755H688.736V48.8767H687.618ZM683.807 49.7924V50.2772C683.807 52.58 681.989 54.371 678.878 55.2733L679.336 56.1755C682.838 55.1251 685.006 52.9301 685.006 49.7924H683.807ZM679.511 49.7924V50.7081H684.575V49.7924H679.511ZM684.777 56.3102C682.312 56.3102 680.75 57.1855 680.75 58.6533C680.75 60.1212 682.312 60.9965 684.777 60.9965C687.241 60.9965 688.803 60.1212 688.803 58.6533C688.803 57.1855 687.241 56.3102 684.777 56.3102ZM684.777 57.1855C686.568 57.1855 687.712 57.7376 687.712 58.6533C687.712 59.5691 686.568 60.1077 684.777 60.1077C682.999 60.1077 681.854 59.5691 681.854 58.6533C681.854 57.7376 682.999 57.1855 684.777 57.1855ZM696.141 49.0787C693.448 49.0787 691.859 49.8328 691.859 51.1929C691.859 52.553 693.448 53.3071 696.141 53.3071C698.821 53.3071 700.424 52.553 700.424 51.1929C700.424 49.8328 698.821 49.0787 696.141 49.0787ZM696.141 49.9271C698.121 49.9271 699.266 50.3849 699.266 51.1929C699.266 52.0009 698.121 52.4588 696.141 52.4588C694.148 52.4588 693.004 52.0009 693.004 51.1929C693.004 50.3849 694.148 49.9271 696.141 49.9271ZM690.634 54.1151V55.0174H701.636V54.1151H690.634ZM691.967 56.0543V56.9162H699.131V57.9935H691.994V60.2828H693.098V58.8015H700.235V56.0543H691.967ZM691.994 60.0404V60.9157H700.599V60.0404H691.994ZM714.438 48.8767V57.0374H715.569V48.8767H714.438ZM711.045 56.3236V56.7007C711.045 58.4514 709.132 59.7576 706.964 60.1212L707.395 60.9965C709.86 60.5387 712.001 59.0035 712.001 56.7007V56.3236H711.045ZM711.247 56.3236V56.7007C711.247 58.99 713.361 60.5387 715.798 60.9965L716.243 60.1212C714.075 59.7441 712.203 58.4244 712.203 56.7007V56.3236H711.247ZM709.038 49.6712C707.193 49.6712 705.86 50.8562 705.86 52.5665C705.86 54.2767 707.193 55.4618 709.038 55.4618C710.87 55.4618 712.203 54.2767 712.203 52.5665C712.203 50.8562 710.87 49.6712 709.038 49.6712ZM709.038 50.6273C710.25 50.6273 711.125 51.4084 711.125 52.5665C711.125 53.7111 710.25 54.5057 709.038 54.5057C707.826 54.5057 706.951 53.7111 706.951 52.5665C706.951 51.4084 707.826 50.6273 709.038 50.6273ZM718.989 52.5261V53.4418H727.257V52.5261H718.989ZM717.494 55.0713V55.987H728.537V55.0713H717.494ZM718.989 49.3211V52.984H720.093V49.3211H718.989ZM718.908 59.8384V60.7541H727.325V59.8384H718.908ZM718.908 57.199V60.0808H720.012V57.199H718.908ZM732.438 56.0812V56.997H743.48V56.0812H732.438ZM737.366 56.5122V61.0504H738.471V56.5122H737.366ZM733.825 49.3615V54.6269H742.066V49.3615H740.962V51.0313H734.942V49.3615H733.825ZM734.942 51.9336H740.962V53.7246H734.942V51.9336ZM750.818 52.2298V53.1455H753.889V52.2298H750.818ZM753.256 48.8901V57.805H754.373V48.8901H753.256ZM746.603 59.8653V60.7811H754.71V59.8653H746.603ZM746.603 57.0239V60.3367H747.721V57.0239H746.603ZM747.465 50.3984V51.3814C747.465 53.1051 746.213 54.7211 744.395 55.3675L744.974 56.2563C747.007 55.5022 748.381 53.5899 748.381 51.3814V50.3984H747.465ZM747.681 50.3984V51.368C747.681 53.4283 748.987 55.2598 750.966 55.9735L751.532 55.0982C749.768 54.4787 748.583 52.9436 748.583 51.368V50.3984H747.681ZM744.745 49.8732V50.7754H751.249V49.8732H744.745ZM761.819 50.6677V51.5834H765.536V50.6677H761.819ZM761.819 53.3879V54.3171H765.536V53.3879H761.819ZM758.17 56.7276V57.6299H765.173V61.0504H766.29V56.7276H758.17ZM765.173 48.8767V56.0543H766.29V48.8767H765.173ZM759.597 49.55C757.793 49.55 756.46 50.762 756.46 52.4857C756.46 54.2094 757.793 55.4079 759.597 55.4079C761.388 55.4079 762.735 54.2094 762.735 52.4857C762.735 50.762 761.388 49.55 759.597 49.55ZM759.597 50.5061C760.782 50.5061 761.671 51.3276 761.671 52.4857C761.671 53.6438 760.782 54.4518 759.597 54.4518C758.412 54.4518 757.537 53.6438 757.537 52.4857C757.537 51.3276 758.412 50.5061 759.597 50.5061ZM771.228 54.8693V55.785H782.23V54.8693H771.228ZM776.17 52.9166V55.2463H777.275V52.9166H776.17ZM772.615 52.5665V53.4822H780.951V52.5665H772.615ZM772.615 49.4288V53.1051H773.72V50.331H780.857V49.4288H772.615ZM776.709 56.6603C774.11 56.6603 772.535 57.4548 772.535 58.8419C772.535 60.2559 774.11 61.0369 776.709 61.0369C779.308 61.0369 780.884 60.2559 780.884 58.8419C780.884 57.4548 779.308 56.6603 776.709 56.6603ZM776.709 57.5222C778.621 57.5222 779.753 58.007 779.753 58.8419C779.753 59.6903 778.621 60.1616 776.709 60.1616C774.81 60.1616 773.666 59.6903 773.666 58.8419C773.666 58.007 774.81 57.5222 776.709 57.5222ZM783.118 50.9505V51.8662H789.151V50.9505H783.118ZM786.135 52.6742C784.626 52.6742 783.522 53.8189 783.522 55.4618C783.522 57.0912 784.626 58.2359 786.135 58.2359C787.656 58.2359 788.761 57.0912 788.761 55.4618C788.761 53.8189 787.656 52.6742 786.135 52.6742ZM786.135 53.6303C787.077 53.6303 787.764 54.3845 787.764 55.4618C787.764 56.5391 787.077 57.2932 786.135 57.2932C785.205 57.2932 784.532 56.5391 784.532 55.4618C784.532 54.3845 785.205 53.6303 786.135 53.6303ZM792.37 48.8767V61.0504H793.447V48.8767H792.37ZM790.43 53.9939V54.9231H792.733V53.9939H790.43ZM789.771 49.146V60.4579H790.821V49.146H789.771ZM785.596 49.2268V51.5161H786.7V49.2268H785.596ZM801.297 51.745V52.6742H804.367V51.745H801.297ZM798.105 49.6173V51.1121C798.105 52.9705 796.88 54.6942 795.075 55.3675L795.654 56.2563C797.688 55.4349 799.008 53.4687 799.008 51.1121V49.6173H798.105ZM798.321 49.6173V51.1525C798.321 53.3206 799.627 55.2059 801.566 55.96L802.172 55.0982C800.408 54.4518 799.223 52.8493 799.223 51.1525V49.6173H798.321ZM803.95 48.8901V57.9935H805.068V48.8901H803.95ZM797.243 59.8653V60.7811H805.364V59.8653H797.243ZM797.243 56.9835V60.2963H798.361V56.9835H797.243Z" fill="#1169AB"/>
</g>
</g>
</g>
<g id="point-3">
<circle id="Ellipse 15_3" cx="788.472" cy="436.713" r="4.71328" fill="#1D8B3B"/>
<g id="Group 58_3">
<g id="Group 57_3">
<path id="&#235;&#182;&#128;&#236;&#130;&#176;&#236;&#139;&#156;&#235;&#175;&#188;&#234;&#179;&#181;&#236;&#155;&#144;" d="M737.62 488.015V489.995H753.438V488.015H737.62ZM744.219 489.014V495.424H746.707V489.014H744.219ZM739.43 478.626V486.356H751.571V478.626H749.083V480.606H741.919V478.626H739.43ZM741.919 482.566H749.083V484.357H741.919V482.566ZM758.225 479.041V480.926C758.225 483.283 757 485.621 754.04 486.563L755.378 488.524C758.715 487.374 760.28 484.395 760.28 480.926V479.041H758.225ZM758.715 479.041V480.945C758.715 484.226 760.224 487.11 763.466 488.185L764.748 486.243C761.939 485.319 760.751 483.132 760.751 480.945V479.041H758.715ZM765.54 477.966V490.73H768.048V477.966H765.54ZM767.331 483.019V485.093H770.366V483.019H767.331ZM756.792 493.124V495.123H768.67V493.124H756.792ZM756.792 489.523V494.18H759.319V489.523H756.792ZM775.248 479.305V481.85C775.248 485.244 773.815 488.599 770.78 489.919L772.269 491.993C775.738 490.39 777.284 486.337 777.284 481.85V479.305H775.248ZM775.738 479.305V481.85C775.738 486.149 777.284 490.032 780.659 491.578L782.129 489.561C779.151 488.279 777.774 485.074 777.774 481.85V479.305H775.738ZM782.959 477.947V495.462H785.485V477.947H782.959ZM788.557 479.343V487.789H797.022V479.343H788.557ZM794.571 481.322V485.809H791.008V481.322H794.571ZM799.661 477.985V490.39H802.188V477.985H799.661ZM790.555 493.049V495.066H802.621V493.049H790.555ZM790.555 489.259V493.935H793.063V489.259H790.555ZM812.159 488.826C808.389 488.826 805.976 490.07 805.976 492.144C805.976 494.18 808.389 495.424 812.159 495.424C815.93 495.424 818.343 494.18 818.343 492.144C818.343 490.07 815.93 488.826 812.159 488.826ZM812.159 490.711C814.516 490.711 815.855 491.201 815.855 492.144C815.855 493.068 814.516 493.539 812.159 493.539C809.803 493.539 808.464 493.068 808.464 492.144C808.464 491.201 809.803 490.711 812.159 490.711ZM806.164 478.739V480.719H817.212V478.739H806.164ZM804.392 485.753V487.751H820.115V485.753H804.392ZM810.218 482.717V486.262H812.706V482.717H810.218ZM815.76 478.739V480.172C815.76 481.53 815.76 482.793 815.289 484.584L817.778 484.848C818.249 483.038 818.249 481.548 818.249 480.172V478.739H815.76ZM825.581 486.922V490.749H828.089V486.922H825.581ZM833.236 477.966V491.182H835.743V477.966H833.236ZM823.168 493.124V495.123H836.12V493.124H823.168ZM823.168 489.938V493.652H825.676V489.938H823.168ZM821.283 487.676C824.431 487.676 828.522 487.581 832.237 486.959L832.086 485.168C828.428 485.64 824.167 485.677 820.981 485.677L821.283 487.676ZM829.936 488.109V489.825H833.782V488.109H829.936ZM826.599 478.57C824.035 478.57 822.244 479.833 822.244 481.68C822.244 483.547 824.035 484.791 826.599 484.791C829.145 484.791 830.936 483.547 830.936 481.68C830.936 479.833 829.145 478.57 826.599 478.57ZM826.599 480.398C827.749 480.398 828.56 480.832 828.56 481.68C828.56 482.529 827.749 482.962 826.599 482.962C825.431 482.962 824.62 482.529 824.62 481.68C824.62 480.832 825.431 480.398 826.599 480.398Z" fill="#1D8B3B"/>
<line id="Line 36_3" x1="707" y1="473.073" x2="865.905" y2="473.073" stroke="#1D8B3B" stroke-opacity="0.5" stroke-width="1.34665"/>
<line id="Line 37_3" x1="707" y1="498.659" x2="865.905" y2="498.659" stroke="#1D8B3B" stroke-opacity="0.5" stroke-width="1.34665"/>
</g>
<path id="&#234;&#179;&#181;&#236;&#155;&#144;&#235;&#130;&#180; &#234;&#181;&#173;&#236;&#160;&#156;&#236;&#149;&#132;&#237;&#138;&#184;&#236;&#132;&#188;&#237;&#132;&#176; &#234;&#177;&#180;&#235;&#166;&#189;(&#236;&#152;&#136;&#236;&#160;&#149;)" d="M713.839 460.059C711.24 460.059 709.597 460.907 709.597 462.308C709.597 463.695 711.24 464.53 713.839 464.53C716.425 464.53 718.081 463.695 718.081 462.308C718.081 460.907 716.425 460.059 713.839 460.059ZM713.839 460.934C715.751 460.934 716.963 461.459 716.963 462.308C716.963 463.143 715.751 463.668 713.839 463.668C711.927 463.668 710.702 463.143 710.702 462.308C710.702 461.459 711.927 460.934 713.839 460.934ZM709.692 452.989V453.905H717.529V452.989H709.692ZM708.385 458.052V458.955H719.374V458.052H708.385ZM712.897 455.709V458.308H714.001V455.709H712.897ZM716.883 452.989V454.026C716.883 454.982 716.883 455.871 716.546 457.123L717.65 457.258C717.973 455.992 717.973 455.009 717.973 454.026V452.989H716.883ZM723.75 458.51V461.217H724.867V458.51H723.75ZM729.15 452.383V461.648H730.267V452.383H729.15ZM721.958 463.372V464.287H730.564V463.372H721.958ZM721.958 460.746V463.628H723.076V460.746H721.958ZM720.383 458.928C722.591 458.928 725.541 458.887 728.167 458.47L728.086 457.648C725.5 457.985 722.484 458.012 720.235 458.012L720.383 458.928ZM726.672 459.574V460.396H729.432V459.574H726.672ZM724.194 452.881C722.403 452.881 721.191 453.716 721.191 454.996C721.191 456.288 722.403 457.123 724.194 457.123C725.972 457.123 727.184 456.288 727.184 454.996C727.184 453.716 725.972 452.881 724.194 452.881ZM724.194 453.716C725.325 453.716 726.12 454.214 726.12 454.996C726.12 455.777 725.325 456.275 724.194 456.275C723.049 456.275 722.255 455.777 722.255 454.996C722.255 454.214 723.049 453.716 724.194 453.716ZM741.457 452.383V464.557H742.534V452.383H741.457ZM739.41 457.339V458.254H741.753V457.339H739.41ZM738.696 452.652V463.937H739.747V452.652H738.696ZM732.798 453.851V460.88H733.916V453.851H732.798ZM732.798 460.436V461.406H733.579C734.885 461.406 736.286 461.338 737.942 461.015L737.821 460.045C736.232 460.355 734.831 460.436 733.579 460.436H732.798ZM748.563 452.949V453.864H756.401V452.949H748.563ZM747.163 457.312V458.227H758.192V457.312H747.163ZM752.105 457.931V460.8H753.209V457.931H752.105ZM755.673 452.949V453.851C755.673 454.834 755.673 455.992 755.269 457.621L756.36 457.756C756.764 456.086 756.764 454.861 756.764 453.851V452.949H755.673ZM748.307 460.436V461.352H755.727V464.557H756.845V460.436H748.307ZM768.331 452.383V464.557H769.408V452.383H768.331ZM763.9 456.746V457.675H766.23V456.746H763.9ZM765.893 452.666V463.937H766.944V452.666H765.893ZM761.557 454.268V455.817C761.557 458.052 760.615 460.274 758.918 461.298L759.605 462.133C761.396 461.002 762.419 458.483 762.419 455.817V454.268H761.557ZM761.786 454.268V455.817C761.786 458.362 762.769 460.759 764.547 461.837L765.234 461.015C763.564 460.045 762.648 457.931 762.648 455.817V454.268H761.786ZM759.254 453.797V454.726H764.816V453.797H759.254ZM774.228 453.312C772.437 453.312 771.171 454.969 771.171 457.554C771.171 460.153 772.437 461.81 774.228 461.81C776.019 461.81 777.285 460.153 777.285 457.554C777.285 454.969 776.019 453.312 774.228 453.312ZM774.228 454.322C775.4 454.322 776.221 455.588 776.221 457.554C776.221 459.534 775.4 460.827 774.228 460.827C773.043 460.827 772.235 459.534 772.235 457.554C772.235 455.588 773.043 454.322 774.228 454.322ZM779.224 452.383V464.557H780.355V452.383H779.224ZM780.086 457.244V458.187H782.348V457.244H780.086ZM784.327 458.941V459.843H792.69V458.941H784.327ZM782.913 462.065V462.995H793.942V462.065H782.913ZM784.327 453.42V459.224H785.458V454.336H792.555V453.42H784.327ZM785.095 456.14V457.029H792.299V456.14H785.095ZM799.745 455.453V456.369H802.048V455.453H799.745ZM804.014 452.383V461.513H805.078V452.383H804.014ZM801.63 452.625V461.163H802.694V452.625H801.63ZM797.146 463.372V464.287H805.455V463.372H797.146ZM797.146 460.396V463.883H798.264V460.396H797.146ZM797.348 453.245V455.036C797.348 456.477 796.419 458.147 794.843 458.914L795.463 459.776C797.227 458.914 798.237 456.921 798.237 455.036V453.245H797.348ZM797.55 453.245V455.036C797.55 456.894 798.479 458.685 800.176 459.453L800.809 458.605C799.287 457.918 798.425 456.463 798.425 455.036V453.245H797.55ZM815.661 452.37V464.57H816.766V452.37H815.661ZM813.13 456.962V457.891H815.823V456.962H813.13ZM807.299 460.719V461.648H808.228C810.544 461.648 812.025 461.581 813.776 461.271L813.668 460.355C811.958 460.678 810.517 460.719 808.228 460.719H807.299ZM807.299 453.487V461.042H808.403V454.416H812.928V453.487H807.299ZM808.12 456.908V457.81H812.402V456.908H808.12ZM830.578 452.383V461.379H831.696V452.383H830.578ZM827.952 456.14V457.069H830.794V456.14H827.952ZM826.821 453.326V453.77C826.821 456.181 824.841 458.093 821.865 459.089L822.35 459.992C825.784 458.847 827.992 456.463 827.992 453.326H826.821ZM822.471 453.326V454.241H827.548V453.326H822.471ZM824.006 463.372V464.287H832.006V463.372H824.006ZM824.006 460.476V463.83H825.124V460.476H824.006ZM842.454 452.383V459.076H843.586V452.383H842.454ZM834.226 457.904V458.82H835.209C837.472 458.82 839.115 458.753 841.121 458.443L841 457.514C839.047 457.837 837.418 457.904 835.209 457.904H834.226ZM834.199 452.976V453.878H838.63V455.4H834.226V458.51H835.317V456.275H839.721V452.976H834.199ZM835.708 459.682V464.395H843.586V459.682H842.481V461.109H836.812V459.682H835.708ZM836.812 461.998H842.481V463.479H836.812V461.998ZM845.281 460.554C845.281 459.966 845.335 459.391 845.443 458.831C845.558 458.271 845.734 457.736 845.971 457.226C846.208 456.716 846.506 456.245 846.865 455.814H847.759C847.429 456.26 847.149 456.741 846.919 457.258C846.696 457.775 846.527 458.31 846.413 458.863C846.298 459.416 846.24 459.976 846.24 460.544C846.24 461.097 846.298 461.646 846.413 462.192C846.527 462.738 846.696 463.262 846.919 463.765C847.142 464.275 847.418 464.756 847.748 465.209H846.865C846.506 464.785 846.208 464.322 845.971 463.819C845.734 463.323 845.558 462.799 845.443 462.246C845.335 461.693 845.281 461.129 845.281 460.554ZM852.12 456.956V457.7H854.016V456.956H852.12ZM852.12 459.919V460.662H854.016V459.919H852.12ZM855.654 454.608V464.347H856.516V454.608H855.654ZM853.747 454.812V463.862H854.587V454.812H853.747ZM850.429 455.416C849.168 455.416 848.36 456.719 848.36 458.809C848.36 460.899 849.168 462.203 850.429 462.203C851.689 462.203 852.508 460.899 852.508 458.809C852.508 456.719 851.689 455.416 850.429 455.416ZM850.429 456.245C851.205 456.245 851.689 457.236 851.689 458.809C851.689 460.382 851.205 461.373 850.429 461.373C849.664 461.373 849.168 460.382 849.168 458.809C849.168 457.236 849.664 456.245 850.429 456.245ZM862.968 457.129V457.872H865.166V457.129H862.968ZM864.886 454.608V460.414H865.78V454.608H864.886ZM862.58 460.705C860.566 460.705 859.327 461.384 859.327 462.526C859.327 463.679 860.566 464.336 862.58 464.336C864.584 464.336 865.823 463.679 865.823 462.526C865.823 461.384 864.584 460.705 862.58 460.705ZM862.58 461.406C864.045 461.406 864.94 461.815 864.94 462.526C864.94 463.226 864.045 463.636 862.58 463.636C861.115 463.636 860.221 463.226 860.221 462.526C860.221 461.815 861.115 461.406 862.58 461.406ZM860.253 455.588V456.374C860.253 457.775 859.251 459.079 857.808 459.606L858.271 460.317C859.887 459.714 860.986 458.174 860.986 456.374V455.588H860.253ZM860.426 455.588V456.374C860.426 458.012 861.471 459.477 863.054 460.048L863.507 459.337C862.095 458.842 861.147 457.635 861.147 456.374V455.588H860.426ZM858.077 455.319V456.051H863.28V455.319H858.077ZM869.571 460.554C869.571 461.129 869.514 461.693 869.399 462.246C869.291 462.799 869.119 463.323 868.882 463.819C868.652 464.322 868.354 464.785 867.988 465.209H867.104C867.434 464.756 867.711 464.275 867.934 463.765C868.156 463.262 868.325 462.738 868.44 462.192C868.555 461.646 868.612 461.097 868.612 460.544C868.612 459.976 868.555 459.416 868.44 458.863C868.325 458.31 868.156 457.775 867.934 457.258C867.711 456.741 867.431 456.26 867.093 455.814H867.988C868.354 456.245 868.652 456.716 868.882 457.226C869.119 457.736 869.291 458.271 869.399 458.831C869.514 459.391 869.571 459.966 869.571 460.554Z" fill="#1D8B3B"/>
</g>
</g>
</g>
<defs>
<clipPath id="clip0_386_266">
<rect width="897" height="538" fill="white"/>
</clipPath>
</defs>
</svg>
